<?xml version="1.0" encoding="utf-8"?>
<!-- Generator: Adobe Illustrator 16.0.0, SVG Export Plug-In . SVG Version: 6.00 Build 0)  -->
<!DOCTYPE svg PUBLIC "-//W3C//DTD SVG 1.1//EN" "http://www.w3.org/Graphics/SVG/1.1/DTD/svg11.dtd">
<svg version="1.1" id="Layer_1" xmlns="http://www.w3.org/2000/svg" xmlns:xlink="http://www.w3.org/1999/xlink" x="0px" y="0px"
	 width="595.28px" height="342px" viewBox="0 0 595.28 342" enable-background="new 0 0 595.28 342" xml:space="preserve">
<g>
	<path fill-rule="evenodd" clip-rule="evenodd" fill="#FE0808" d="M522.491,186.213c-0.185,1.182-0.536,2.193-1.333,3.003
		c-1.201,1.222-2.35,1.435-3.8,0.543c-0.566-0.349-0.907-0.35-1.31,0.143c-0.238,0.292-0.501,0.573-0.793,0.811
		c-1.185,0.963-1.571,1.838-0.524,3.342c1.142,1.64,1.484,3.681,1.141,5.712c-0.56,3.313-1.865,5.143-4.904,5.85
		c-1.324,0.309-2.636,0.741-4.1,0.62c0.135-0.836,0.871-0.847,1.363-1.044c3.833-1.54,5.301-4.733,5.994-8.473
		c0.22-1.183-0.317-1.943-1.395-2.483c-1.708-0.855-1.971-2.561-0.677-3.985c1.112-1.225,2.261-2.417,3.363-3.651
		c0.431-0.481,0.68-0.566,1.204-0.029c1.284,1.31,2.54,1.162,3.628-0.344c0.685-0.946,1.09-1.982,0.777-3.19
		c-0.117-0.453-0.313-1.078,0.2-1.273c0.535-0.203,0.527,0.515,0.732,0.83c0.719,1.11,2.052,1.473,3.2,0.812
		c0.729-0.42,0.975-0.873,0.115-1.46c-0.704-0.48-1.088-2.442-0.676-3.149c0.283-0.486,0.563-0.146,0.809,0.016
		c1.727,1.127,2.465,5.013,1.286,6.71C525.935,186.758,524.365,187.034,522.491,186.213z"/>
	<path fill-rule="evenodd" clip-rule="evenodd" fill="#FE0A0A" d="M298.092,269.276c-0.507,0.63-1.005,1.472-1.717,2.053
		c-0.486,0.397-1.048-0.257-1.455-0.564c-0.766-0.578-1.259-0.543-1.781,0.293c-0.274,0.441-0.62,1.077-1.334,0.751
		c-0.814-0.371-1.927-0.75-2.105-1.539c-0.205-0.908,0.918-1.519,1.474-2.25c0.479-0.63,0.847-0.034,1.162,0.213
		c0.967,0.758,1.826,1.166,2.542-0.292c0.334-0.68,0.813-0.824,1.449-0.252c0.416,0.374,0.935,0.633,1.404,0.947
		C297.915,268.759,298.188,268.819,298.092,269.276z"/>
	<path fill-rule="evenodd" clip-rule="evenodd" fill="#FE0808" d="M519.147,177.936c-1.104-0.366-1.818-0.085-2.237,1.443
		c-0.379,1.382-1.678,0.384-2.559,0.358c-0.905-0.025-0.846-0.667-0.643-1.321c0.111-0.358,0.213-0.723,0.28-1.092
		c0.133-0.729,0.472-1.085,1.251-0.793c1.217,0.454,2.096,0.326,2.189-1.243c0.049-0.813,0.543-1.004,1.264-0.761
		c0.134,0.045,0.278,0.064,0.404,0.124c0.538,0.25,1.538-0.152,1.617,0.47c0.106,0.828-0.27,1.731-0.504,2.585
		C520.094,178.132,519.682,177.987,519.147,177.936z"/>
	<path fill-rule="evenodd" clip-rule="evenodd" fill="#FE0A0A" d="M514.4,174.146c-0.651-0.602-2.387,0.5-2.183-1.326
		c0.088-0.782-0.298-2.343,1.145-2.166c0.794,0.097,2.424-0.655,2.484,0.955C515.879,172.466,516.198,174.012,514.4,174.146z"/>
	<path fill-rule="evenodd" clip-rule="evenodd" fill="#C55387" d="M523.445,159.992c-0.249,0.271-0.498,0.543-0.747,0.814
		c-0.093,0.108-0.186,0.216-0.278,0.323l-0.016,0.018c-0.089,0.09-0.178,0.18-0.267,0.271l-0.016,0.014
		c-0.194,0.045-0.262,0.181-0.262,0.365c-0.803,0.83-1.608,1.657-2.405,2.493c-0.238,0.25-0.649,0.441-0.395,0.912
		c0.145,0.494-0.32,0.545-0.559,0.68c-1.592,0.901-2.97,2.102-4.45,3.3c-0.07-0.604,0.308-0.791,0.556-1.04
		c2.867-2.886,5.741-5.765,8.621-8.637c0.16-0.159,0.39-0.248,0.587-0.369l0.01,0.011
		C523.698,159.427,523.572,159.709,523.445,159.992z"/>
	<path fill-rule="evenodd" clip-rule="evenodd" fill="#C55387" d="M523.795,158.417c0.254-0.033,0.508-0.066,0.762-0.099
		c-0.15,0.241-0.301,0.482-0.452,0.724c-0.093,0.035-0.187,0.069-0.279,0.103l-0.01-0.011
		C523.809,158.895,523.802,158.655,523.795,158.417z"/>
	<path fill-rule="evenodd" clip-rule="evenodd" fill="#5153EF" d="M523.825,159.145c0.093-0.034,0.187-0.068,0.279-0.103
		c-0.042,0.439,0.027,0.956-0.659,0.95C523.572,159.709,523.698,159.427,523.825,159.145z"/>
	<path fill-rule="evenodd" clip-rule="evenodd" fill="#5153EF" d="M522.42,161.129c0.093-0.107,0.186-0.215,0.278-0.323
		C522.694,160.99,522.608,161.104,522.42,161.129z"/>
	<path fill-rule="evenodd" clip-rule="evenodd" fill="#5153EF" d="M522.138,161.417c0.089-0.09,0.178-0.181,0.267-0.271
		C522.315,161.237,522.227,161.327,522.138,161.417z"/>
	<path fill-rule="evenodd" clip-rule="evenodd" fill="#5153EF" d="M521.86,161.796c0-0.185,0.067-0.32,0.262-0.365
		C522.035,161.553,521.947,161.675,521.86,161.796z"/>
	<g>
		<path fill-rule="evenodd" clip-rule="evenodd" fill="#0717F7" d="M386.945,76.726c-0.195-0.008-0.39-0.016-0.584-0.024
			c-3.236-0.256-6.433-0.916-9.707-0.819c-1.471,0.043-2.992,0.269-4.414-0.449c-0.256-0.129-0.653-0.129-0.915,0.165
			c-0.194-0.004-0.388-0.009-0.582-0.014c-1.465-0.478-2.974-0.124-4.459-0.239c-1.167-0.09-2.379,0.208-3.501-0.178
			c-1.607-0.553-3.192-0.476-4.804-0.141c-0.856-0.004-1.713-0.009-2.569-0.014c-0.222-0.232-0.512-0.205-0.793-0.208
			c-8.29-0.085-16.582-0.327-24.868-0.192c-4.715,0.077-9.432,0.063-14.146,0.183c-0.456,0.012-0.949-0.151-1.358,0.205
			c-0.856,0.008-1.713,0.017-2.569,0.025c-1.084-0.266-2.168-0.532-3.172,0.241c-0.566,0.032-1.132,0.081-1.698,0.093
			c-3.453,0.076-6.935-0.108-10.354,0.271c-5.409,0.601-10.819,0.942-16.251,1.058c-0.331,0.007-0.663,0.012-0.991,0.046
			c-4.835,0.502-9.669,1.012-14.505,1.515c-4.368,0.455-8.747,0.826-13.104,1.371c-6.596,0.825-13.213,1.5-19.764,2.659
			c-3.576,0.633-7.202,0.962-10.742,1.811c-0.141,0.019-0.281,0.039-0.422,0.058c-1.945,0.306-3.891,0.611-5.838,0.917
			c-3.633,0.218-7.165,1.155-10.777,1.518c-0.469,0.047-0.941,0.063-1.412,0.093c-0.004-0.17-0.008-0.34-0.013-0.511
			c2.594-0.627,5.183-1.271,7.78-1.879c19.082-4.459,38.326-8.083,57.685-11.11c19.867-3.106,39.825-5.47,59.868-7.089
			c15.612-1.261,31.248-2.092,46.912-2.437c20.403-0.449,40.783-0.042,61.13,1.547c21.211,1.657,42.246,4.494,62.857,9.946
			c12.016,3.179,23.729,7.179,34.611,13.307c6.898,3.885,13.254,8.473,17.939,14.993c7.075,9.845,6.878,20.06,1.271,30.445
			c-3.88,7.186-9.415,12.999-15.502,18.322c-5.168,4.519-10.71,8.543-16.514,12.205c-0.502,0.317-1.073,0.526-1.611,0.785
			c-0.255-0.471,0.156-0.661,0.395-0.912c0.797-0.835,1.603-1.663,2.405-2.493c0.087-0.122,0.175-0.243,0.262-0.365l0.016-0.014
			c0.089-0.09,0.178-0.181,0.267-0.271l0.016-0.018c0.188-0.025,0.274-0.14,0.278-0.324c0.249-0.271,0.498-0.542,0.747-0.814
			c0.687,0.005,0.617-0.511,0.659-0.951c0.151-0.241,0.302-0.482,0.453-0.723c0.146-0.177,0.291-0.354,0.437-0.531
			c0.63-0.154,0.844-0.73,1.161-1.182c1.703-2.418,3.214-4.984,3.969-7.83c0.438-1.653,1.32-3.253,1.3-4.964
			c-0.048-4.095,0.499-8.182-1.014-12.254c-1.423-3.83-3.106-7.492-5.75-10.51c-4.059-4.633-8.613-8.789-13.857-12.124
			c-2.412-1.535-4.89-2.931-7.389-4.318c-2.856-1.586-5.72-3.071-8.713-4.391c-4.167-1.838-8.386-3.524-12.643-5.13
			c-3.164-1.194-6.365-2.268-9.607-3.231c-2.215-0.659-4.38-1.512-6.621-2.053c-1.584-0.382-3.113-0.921-4.684-1.323
			c-1.887-0.483-3.834-0.757-5.688-1.333c-2.225-0.69-4.501-1.087-6.77-1.537c-2.105-0.417-4.161-1.025-6.301-1.329
			c-2.437-0.346-4.811-1.159-7.25-1.463c-1.669-0.208-3.359-0.49-4.966-0.831c-1.491-0.316-3.043-0.405-4.538-0.753
			c-1.163-0.271-2.424-1.109-3.762-0.522c-0.287-0.005-0.574-0.009-0.861-0.014c-3.466-1.215-7.19-0.961-10.709-1.886
			c-0.301-0.079-0.66-0.094-0.921,0.189c-0.194-0.004-0.389-0.007-0.583-0.011c-1.34-0.047-2.564-0.928-3.964-0.549
			c-0.382-0.002-0.764-0.005-1.146-0.008c-1.42-0.156-2.715-1.257-4.247-0.563c-0.289-0.007-0.579-0.015-0.868-0.023
			c-0.168-0.072-0.329-0.183-0.504-0.21c-2.959-0.471-5.983-0.354-8.923-1.057C388.464,76.413,387.649,76.277,386.945,76.726z"/>
		<path fill-rule="evenodd" clip-rule="evenodd" fill="#0717F7" d="M330.43,225.639c-0.149,0.021-0.299,0.043-0.449,0.063
			c-1.155-0.162-2.263-0.039-3.293,0.552c-0.18,0.032-0.361,0.064-0.541,0.097c-0.531-0.247-1.048-0.404-1.44,0.226
			c-0.274,0.037-0.548,0.073-0.821,0.109c-0.239-0.313-0.433-0.211-0.605,0.068c-4.819,0.666-9.641,1.325-14.459,1.998
			c-10.681,1.493-21.402,2.614-32.143,3.577c-14.09,1.264-28.199,2.192-42.338,2.73c-18.873,0.717-37.742,0.751-56.605-0.158
			c-24.371-1.176-48.58-3.688-72.392-9.246c-13.208-3.083-26.125-7.043-38.251-13.25c-6.945-3.556-13.43-7.774-18.71-13.623
			c-9.221-10.214-10.403-22.063-3.446-34.275c4.038-7.088,9.584-12.88,15.716-18.145c5.499-4.722,11.353-8.971,17.567-12.71
			c-0.279,1.823-0.479,3.651-0.279,5.499c-2.836,2.605-5.164,5.614-7.108,8.928c-2.211,3.768-4.005,7.704-4.394,12.117
			c-0.402,4.565-0.051,9.046,1.763,13.343c2.568,6.082,6.888,10.81,11.775,15.031c8.849,7.642,19.192,12.752,29.942,17.069
			c7.039,2.828,14.24,5.218,21.549,7.289c6.088,1.725,12.211,3.313,18.387,4.662c4.562,0.996,9.152,1.878,13.758,2.692
			c5.572,0.985,11.129,2.009,16.752,2.71c6.272,0.781,12.545,1.559,18.822,2.313c7.216,0.868,14.478,1.159,21.698,1.98
			c4.351,0.494,8.771,0.293,13.161,0.604c5.372,0.381,10.779,0.322,16.172,0.354c8.185,0.05,16.369,0.056,24.553,0.001
			c5.299-0.035,10.622,0.073,15.887-0.402c5.793-0.524,11.614-0.177,17.396-0.963c3.831-0.521,7.728-0.558,11.595-0.812l0.107,0.032
			l0.087-0.068c0.863-0.06,1.726-0.119,2.588-0.178c1.126,0.081,2.232,0.002,3.354-0.182
			C327.318,225.423,328.878,224.934,330.43,225.639z"/>
		<path fill-rule="evenodd" clip-rule="evenodd" fill="#FE0119" d="M374.542,120.979c-0.355,0.626-0.229,1.103-0.229,1.555
			c-0.009,9.086-0.009,18.171-0.003,27.257c0,0.66,0.116,1.324,0.075,1.98c-0.115,1.824,0.883,2.91,2.355,3.698
			c1.768,0.945,3.715,1.015,5.653,1.132c0.609,0.037,1.411-0.238,1.426,0.855c0.016,1.198-0.866,0.906-1.509,0.908
			c-6.72,0.016-13.438,0.015-20.158,0.001c-0.598-0.001-1.388,0.278-1.404-0.848c-0.016-1.087,0.706-0.921,1.352-0.916
			c1.382,0.011,2.737-0.157,4.057-0.57c2.485-0.776,3.531-1.969,3.583-4.605c0.198-10.216,0.214-20.435-0.01-30.651
			c-0.057-2.58-0.988-3.463-3.539-3.934c-1.405-0.259-2.824-0.262-4.244-0.237c-0.65,0.012-1.229,0.032-1.2-0.923
			c0.025-0.852,0.527-0.855,1.136-0.854c8.423,0.005,16.847,0.02,25.27-0.021c0.873-0.004,1.121,0.547,1.466,1.082
			c5.4,8.375,10.794,16.755,16.19,25.132c0.307,0.476,0.624,0.945,0.971,1.47c0.587-0.259,0.736-0.836,1.013-1.281
			c5.233-8.421,10.467-16.843,15.661-25.289c0.506-0.822,1.05-1.119,2.019-1.114c8.044,0.042,16.089,0.014,24.134,0.042
			c0.643,0.002,1.681-0.453,1.698,0.838c0.02,1.402-1.096,0.866-1.769,0.893c-1.229,0.05-2.458,0.042-3.678,0.242
			c-2.57,0.422-3.624,1.46-3.636,4.034c-0.046,10.504-0.046,21.01,0,31.514c0.011,2.531,0.877,3.391,3.383,3.938
			c1.495,0.326,3.009,0.303,4.522,0.285c0.68-0.008,1.222,0.047,1.201,0.957c-0.02,0.878-0.604,0.821-1.177,0.821
			c-10.789,0.002-21.579,0.001-32.368,0.002c-0.644,0-1.235,0.024-1.224-0.923c0.013-0.987,0.67-0.847,1.274-0.852
			c1.418-0.011,2.834,0.025,4.243-0.245c2.578-0.492,3.455-1.445,3.591-4.093c0.056-1.086,0.039-2.176,0.039-3.264
			c0.003-8.944,0.002-17.887,0.002-26.831c0-0.465,0-0.93,0-1.734c-0.397,0.571-0.632,0.882-0.84,1.209
			c-7.509,11.846-15.016,23.694-22.522,35.541c-1.094,1.725-2.151,1.744-3.259,0.04c-7.46-11.488-14.915-22.98-22.373-34.469
			C375.359,122.206,374.994,121.663,374.542,120.979z"/>
		<path fill-rule="evenodd" clip-rule="evenodd" fill="#FE0119" d="M275.541,137.991c2.947,2.741,5.734,5.348,8.539,7.938
			c2.988,2.76,5.998,5.497,8.983,8.259c1.596,1.476,3.48,2.245,5.629,2.377c0.617,0.038,1.08,0.044,1.041,0.905
			c-0.036,0.823-0.472,0.906-1.105,0.906c-6.435-0.005-12.868-0.016-19.303,0.014c-0.777,0.003-1.199-0.439-1.679-0.889
			c-6.313-5.924-12.663-11.807-18.912-17.797c-1.346-1.291-2.797-0.772-4.241-0.849c-0.474-0.025-0.415,0.424-0.41,0.747
			c0.065,4.351-0.192,8.707,0.131,13.05c0.181,2.418,1.094,3.315,3.522,3.637c1.402,0.186,2.824,0.225,4.24,0.304
			c0.58,0.033,1.139-0.047,1.16,0.831c0.021,0.93-0.541,0.953-1.203,0.952c-5.487-0.003-10.976-0.002-16.463-0.002
			c-5.016,0-10.031,0.006-15.046-0.008c-0.601-0.002-1.386,0.267-1.397-0.856c-0.012-1.095,0.727-0.869,1.36-0.914
			c1.414-0.099,2.841-0.124,4.237-0.341c2.25-0.35,3.105-1.298,3.299-3.546c0.117-1.363,0.15-2.737,0.152-4.106
			c0.014-8.421,0.011-16.843,0.002-25.265c-0.001-0.896-0.035-1.796-0.118-2.689c-0.229-2.479-1.093-3.429-3.579-3.764
			c-1.401-0.189-2.826-0.212-4.243-0.273c-0.61-0.026-1.112-0.018-1.112-0.875c0-0.82,0.434-0.917,1.082-0.911
			c13.717,0.153,27.439-0.375,41.148,0.372c4.019,0.219,7.999,0.813,11.656,2.708c1.697,0.88,3.246,1.948,4.494,3.404
			c3.149,3.675,2.916,8.48-0.574,11.839c-2.285,2.2-5.126,3.329-8.131,4.111C277.741,137.512,276.768,137.709,275.541,137.991z
			 M254.08,126.79c0,1.704-0.036,3.408,0.012,5.111c0.036,1.309-0.59,3.096,0.262,3.792c0.809,0.66,2.528,0.247,3.846,0.228
			c3.076-0.043,6.162-0.09,9.116-1.097c2.653-0.904,4.645-2.558,5.395-5.361c1.38-5.157-1.165-9.522-6.306-10.914
			c-3.8-1.029-7.691-0.832-11.567-0.868c-0.813-0.007-0.763,0.471-0.761,1.017C254.084,121.395,254.08,124.092,254.08,126.79z"/>
		<path fill-rule="evenodd" clip-rule="evenodd" fill="#FE021A" d="M186.794,159.39c-7.622-0.104-14.861-0.979-21.606-4.276
			c-3.744-1.83-7.046-4.26-9.608-7.578c-5.868-7.6-5.114-17.369,1.898-23.946c5.427-5.091,11.999-7.896,19.302-8.789
			c8.829-1.079,17.659-1.121,26.299,1.488c4.491,1.355,8.557,3.529,12.067,6.672c7.997,7.159,8.503,18.106,1.187,25.959
			c-4.868,5.225-11.053,7.958-17.922,9.373C194.5,159.098,190.539,159.336,186.794,159.39z M203.247,136.663
			c0-0.566,0.015-1.132-0.003-1.697c-0.106-3.562-0.49-7.082-2.156-10.302c-2.946-5.692-7.977-7.706-14.055-7.845
			c-8.449-0.193-14.409,4.214-16.355,12.309c-1.175,4.888-1.226,9.859-0.059,14.747c1.578,6.606,5.332,11.182,12.423,12.282
			c2.16,0.335,4.342,0.341,6.505,0.093c5.334-0.612,9.256-3.311,11.642-8.143C202.969,144.499,203.283,140.603,203.247,136.663z"/>
		<path fill-rule="evenodd" clip-rule="evenodd" fill="#FE021A" d="M306.238,150.917c0-2.366-0.003-4.731,0.003-7.097
			c0.001-0.547-0.155-1.275,0.704-1.258c0.747,0.015,1.696-0.496,2.09,0.763c3.415,10.92,16.766,15.075,25.933,12.583
			c1.57-0.427,2.993-1.171,4.2-2.278c1.941-1.782,2.079-4.018,0.356-6.02c-1.199-1.393-2.767-2.272-4.42-3.007
			c-4.587-2.039-9.465-3.268-14.138-5.068c-3.266-1.258-6.532-2.51-9.419-4.549c-7.252-5.124-6.985-12.882,0.604-17.526
			c4.952-3.03,10.415-3.766,16.09-3.586c3.577,0.114,7.022,0.886,10.42,1.949c0.945,0.296,1.907,0.55,2.875,0.762
			c2.344,0.514,3.042,0.208,3.94-1.999c0.461-1.132,1.308-0.701,2.019-0.712c0.888-0.013,0.503,0.753,0.523,1.182
			c0.195,4.152,0.354,8.305,0.528,12.458c0.025,0.598,0.039,1.297-0.763,1.2c-0.734-0.089-1.888,0.68-2.168-0.595
			c-1.675-7.633-13.536-13.451-23.306-10.622c-1.233,0.357-2.359,0.974-3.337,1.825c-2.062,1.794-2.068,4.041,0.02,5.807
			c1.832,1.549,4.006,2.483,6.225,3.316c5.703,2.142,11.627,3.675,17.188,6.213c2.112,0.964,4.19,1.984,6.014,3.443
			c5.507,4.407,5.607,10.984,0.196,15.516c-4.098,3.433-8.977,4.927-14.193,5.507c-5.718,0.635-11.325,0.066-16.841-1.536
			c-1.226-0.356-2.46-0.683-3.746-0.755c-1.864-0.104-3.494,0.457-4.658,1.924c-0.728,0.917-1.618,0.702-2.436,0.544
			c-0.848-0.163-0.479-1.016-0.488-1.57C306.218,155.46,306.239,153.188,306.238,150.917z"/>
		<path fill-rule="evenodd" clip-rule="evenodd" fill="#FE021A" d="M77.939,139.15c-0.2-1.848,0-3.675,0.279-5.499
			c2.903-8.886,9.652-13.728,17.947-16.782c10.599-3.901,21.378-3.864,32.227-1.041c1.598,0.416,3.218,0.795,4.852,1.014
			c2.163,0.291,3.227-0.363,4.108-2.369c0.517-1.178,1.474-0.515,2.22-0.584c0.795-0.074,0.627,0.651,0.628,1.141
			c0.007,4.353,0.006,8.705,0.001,13.057c0,0.504,0.125,1.197-0.625,1.187c-0.732-0.01-1.743,0.523-2.172-0.438
			c-4.02-9.031-11.798-11.315-20.689-11.513c-3.881-0.086-7.541,0.889-11.092,2.527c-7.492,3.458-9.844,10.575-9.688,17.016
			c0.057,2.362,0.448,4.695,1.165,6.964c2.237,7.079,7.324,10.627,14.438,11.613c9.496,1.317,18.115-0.819,25.773-6.663
			c0.419-0.319,0.818-0.985,1.449-0.645c0.604,0.326,0.193,1.027,0.308,1.548c0.428,1.951-0.626,2.894-2.192,3.852
			c-7.457,4.563-15.648,5.954-24.201,5.836c-6.898-0.095-13.666-1.008-20.106-3.659c-4.917-2.023-9.124-4.959-12.04-9.514
			c-1.101-1.719-1.949-3.551-2.316-5.577C78.123,140.132,78.031,139.642,77.939,139.15z"/>
		<path fill-rule="evenodd" clip-rule="evenodd" fill="#FE0219" d="M524.994,157.787c-0.146,0.177-0.291,0.354-0.438,0.531
			c-0.254,0.033-0.508,0.066-0.762,0.099c-9.653-0.014-19.307-0.028-28.961-0.042c-0.379,0-0.757-0.003-1.136,0
			c-0.608,0.005-1.12-0.035-1.132-0.878c-0.013-0.833,0.452-0.914,1.089-0.901c1.516,0.029,3.027,0.001,4.524-0.286
			c2.084-0.399,2.572-1.327,1.486-3.171c-1.269-2.155-2.674-4.231-4.004-6.352c-0.313-0.499-0.717-0.654-1.296-0.652
			c-6.862,0.017-13.724,0.013-20.586,0.006c-0.497,0-0.909,0.053-1.205,0.54c-1.006,1.652-2.269,3.145-3.081,4.914
			c-1.11,2.417-0.373,3.977,2.223,4.475c1.525,0.292,3.098,0.343,4.649,0.496c0.572,0.057,1.242-0.151,1.189,0.882
			c-0.047,0.929-0.586,0.929-1.236,0.929c-4.4-0.002-8.802-0.001-13.203-0.001c-2.271,0-4.543-0.002-6.814,0.001
			c-0.65,0.001-1.188-0.003-1.233-0.932c-0.043-0.896,0.496-0.853,1.061-0.915c3.32-0.362,5.8-2.105,7.777-4.701
			c4.04-5.305,7.572-10.96,11.338-16.455c4.647-6.782,9.217-13.617,13.822-20.428c1.004-1.485,1.871-1.481,2.868,0.023
			c7.412,11.183,14.821,22.368,22.231,33.552c1.201,1.813,2.462,3.578,3.874,5.241c1.507,1.774,3.4,2.639,5.681,2.808
			c0.472,0.035,1.094-0.19,1.331,0.505C525.032,157.308,525.013,157.547,524.994,157.787z M475.044,143.145
			c6.195,0,12.072,0,18.148,0c-3.019-4.618-5.95-9.104-8.951-13.695C481.129,134.085,478.146,138.525,475.044,143.145z"/>
		<path fill-rule="evenodd" clip-rule="evenodd" fill="#FE0808" d="M408.873,236.8c-1.082,3.529-3.027,4.406-6.467,2.951
			c-0.441-0.188-0.521-0.061-0.74,0.25c-1.987,2.803-5.013,3.314-8.114,3.568c-1.412,0.116-2.205-0.868-2.551-2.054
			c-0.331-1.134-0.861-1.048-1.719-0.693c-1.159,0.479-2.099,1.26-3.071,2.01c-2.35,1.814-4.47,3.948-7.275,5.127
			c-2.97,1.246-4.71,0.628-6.082-2.307c-1.306-2.79-1.981-5.8-2.945-8.709c-0.372-1.119-0.739-2.241-1.146-3.349
			c-0.747-2.039-0.758-2.034,0.305-4.316c0.556,0.393,0.689,0.996,0.855,1.547c0.846,2.801,1.664,5.609,2.496,8.414
			c0.2,0.678,0.396,1.359,0.624,2.028c1.632,4.773,2.775,5.271,7.338,3.15c1.971-0.915,3.72-2.171,5.355-3.669
			c-2.466,0.176-5.037-0.917-7.339,0.842c-0.658,0.504-0.667-0.104-0.641-0.55c0.112-1.878,1.8-3.418,3.81-3.495
			c2.742-0.105,5.479,0.284,8.228,0.043c1.599-0.14,3.14-0.532,4.696-0.904c0.124,2.229-0.311,2.704-3.43,3.612
			c2.365,1.308,4.325,0.035,6.337-0.423c2.251-0.514,3.799-1.785,4.235-4.322c1.826,2.266,2.193,2.406,4.033,1.746
			c1.501-0.539,1.969-1.284,1.454-2.823c-1.211-3.624-2.506-7.22-3.808-10.813c-0.351-0.967-0.509-1.906-0.227-2.907
			c0.088-0.312,0.021-0.775,0.383-0.849c0.494-0.099,0.553,0.44,0.676,0.751c1.193,3.029,2.351,6.072,3.541,9.103
			c0.5,1.272,1.061,2.522,1.586,3.785c0.413,0.993,1.087,1.715,2.206,1.718c1.325,0.004,2.467-0.559,3.406-1.492
			c0.354-0.353,0.061-0.717-0.094-1.042c-1.841-3.877-3.463-7.862-5.628-11.577c-0.73-1.254-0.308-2.355,0.139-3.506
			c0.104-0.27,0.401-0.393,0.532-0.15c0.61,1.133,2.392,1.625,1.865,3.38c-0.152,0.506,0.139,0.932,0.324,1.349
			c1.038,2.326,2.115,4.636,3.167,6.957c0.71,1.566,1.122,3.192,1.094,4.938c-0.028,1.712-0.823,2.878-2.336,3.565
			c-1.469,0.668-2.925,0.671-4.299-0.282C409.417,237.242,409.203,237.057,408.873,236.8z"/>
		<path fill-rule="evenodd" clip-rule="evenodd" fill="#030303" d="M151.446,182.392c0.875-1.86,1.673-3.553,2.468-5.245
			c0.881-1.876,1.775-3.745,2.633-5.632c0.211-0.462,0.39-0.797,0.998-0.789c2.461,0.029,4.922,0.006,7.383,0.021
			c0.283,0.002,0.762-0.146,0.713,0.396c-0.033,0.376-0.418,0.273-0.682,0.313c-2.099,0.313-2.221,0.449-2.223,2.616
			c-0.005,3.976-0.006,7.951,0,11.927c0.003,2.087,0.135,2.235,2.139,2.566c0.296,0.049,0.773-0.119,0.768,0.37
			c-0.005,0.492-0.483,0.341-0.774,0.343c-3.171,0.012-6.342,0.012-9.513-0.001c-0.293-0.001-0.761,0.179-0.818-0.294
			c-0.062-0.509,0.411-0.372,0.712-0.423c2.07-0.346,2.179-0.471,2.181-2.525c0-4.059,0-8.117,0-12.2
			c-0.557,0.054-0.547,0.531-0.689,0.827c-2.115,4.419-4.201,8.854-6.314,13.274c-0.23,0.481-0.245,1.273-0.905,1.301
			c-0.778,0.033-0.786-0.848-1.032-1.346c-2.072-4.18-4.09-8.386-6.131-12.581c-0.242-0.497-0.521-0.976-1.017-1.424
			c0,3.272,0,6.544,0,9.816c0,0.757-0.007,1.515,0.001,2.271c0.02,1.653,0.486,2.202,2.076,2.505
			c0.368,0.069,1.009-0.149,0.947,0.51c-0.051,0.528-0.613,0.279-0.939,0.283c-1.893,0.026-3.785,0.018-5.678,0.007
			c-0.256-0.001-0.629,0.136-0.711-0.25c-0.111-0.525,0.358-0.435,0.645-0.509c2.002-0.517,2.188-0.751,2.188-2.806
			c0.001-4.022-0.05-8.046,0.026-12.067c0.028-1.462-0.57-2.092-1.943-2.194c-0.334-0.024-0.93,0.193-0.914-0.344
			c0.019-0.633,0.656-0.354,1.013-0.357c2.224-0.028,4.45,0.022,6.673-0.035c0.775-0.02,1.144,0.224,1.479,0.932
			C147.877,175.176,149.621,178.671,151.446,182.392z"/>
		<path fill-rule="evenodd" clip-rule="evenodd" fill="#040404" d="M356.302,101.259c1.954,2.066,3.831,4.057,5.718,6.038
			c0.361,0.38,0.791,0.652,1.32,0.786c0.309,0.078,0.895-0.044,0.78,0.546c-0.084,0.434-0.55,0.255-0.847,0.258
			c-1.796,0.017-3.593-0.025-5.388,0.026c-0.663,0.019-1.033-0.302-1.43-0.73c-1.863-2.01-3.749-4-5.614-6.008
			c-0.4-0.431-0.815-0.888-1.437-0.62c-0.563,0.243-0.248,0.833-0.268,1.261c-0.043,0.99-0.024,1.984-0.012,2.977
			c0.028,2.022,0.068,2.059,2.116,2.386c0.297,0.047,0.775-0.108,0.776,0.372c0,0.5-0.478,0.34-0.77,0.341
			c-3.215,0.011-6.429,0.01-9.644,0.002c-0.3-0.001-0.777,0.139-0.774-0.345c0.002-0.462,0.479-0.322,0.782-0.369
			c2.034-0.314,2.147-0.43,2.154-2.527c0.013-3.403,0.013-6.807,0-10.21c-0.007-2.071-0.169-2.238-2.201-2.467
			c-0.31-0.035-0.792,0.088-0.749-0.387c0.036-0.41,0.507-0.318,0.823-0.314c4.488,0.06,8.98-0.159,13.465,0.157
			c1.337,0.094,2.619,0.414,3.754,1.151c2.813,1.827,2.628,5.3-0.366,6.813C357.833,100.73,357.112,100.944,356.302,101.259z
			 M349.12,96.818c0,0.899,0.006,1.797-0.003,2.696c-0.004,0.451-0.015,0.835,0.639,0.824c1.232-0.023,2.47-0.026,3.643-0.44
			c1.593-0.562,2.347-2.177,1.9-3.93c-0.492-1.935-2.589-2.994-5.523-2.443c-1.503,0.282-0.296,1.738-0.644,2.589
			C349.05,96.317,349.12,96.582,349.12,96.818z"/>
		<path fill-rule="evenodd" clip-rule="evenodd" fill="#C55387" d="M77.939,139.15c0.092,0.491,0.184,0.982,0.273,1.472
			c-0.474-0.285-0.789-0.004-1.115,0.296c-2.111,1.949-3.895,4.159-5.367,6.63c-1.141,1.916-2.307,3.827-3.119,5.9
			c-0.898,2.292-1.885,4.585-1.867,7.128c0.01,1.419,0.01,2.839,0.008,4.259c-0.012,4.583,1.561,8.603,3.977,12.465
			c3.107,4.971,7.553,8.656,11.706,12.585c2.674,2.529,5.959,4.423,9.205,6.266c2.659,1.508,5.21,3.218,7.985,4.509
			c2.988,1.392,6.045,2.633,9.056,3.977c2.942,1.314,6.034,2.237,9.007,3.452c2.682,1.097,5.521,1.662,8.197,2.791
			c2.227,0.938,4.656,1.4,7.002,2.052c3.248,0.902,6.459,2.06,9.768,2.593c3.02,0.486,5.851,1.604,8.869,2.063
			c3.416,0.519,6.746,1.662,10.168,2.064c3.595,0.423,7.104,1.257,10.625,1.945c4.834,0.944,9.773,0.877,14.602,2.01
			c2.133,0.5,4.517,0.685,6.824,0.79c2.735,0.126,5.517,0.276,8.205,0.978c0.137,0.035,0.277,0.098,0.412,0.089
			c3.258-0.206,6.441,0.614,9.703,0.67c2.857,0.049,5.804,0.213,8.638,0.944c0.403,0.104,0.841,0.103,1.263,0.103
			c2.271,0,4.553-0.152,6.813-0.003c18.416,1.216,36.853,0.206,55.276,0.546c6.553,0.121,13.076-0.698,19.642-0.706
			c2.408-0.003,5.063-0.025,7.505-0.844c0.521-0.175,1.121-0.162,1.684-0.154c2.453,0.031,4.909,0.116,7.292-0.588
			c0.752,0.108,1.618-0.35,2.255,0.425c-0.862,0.059-1.725,0.118-2.587,0.178c0.002,0-0.105-0.04-0.105-0.04l-0.09,0.076
			c-3.867,0.254-7.764,0.291-11.595,0.812c-5.782,0.786-11.604,0.438-17.396,0.963c-5.265,0.476-10.588,0.367-15.887,0.402
			c-8.184,0.055-16.368,0.049-24.553-0.001c-5.393-0.032-10.8,0.026-16.172-0.354c-4.391-0.312-8.811-0.11-13.161-0.604
			c-7.221-0.821-14.482-1.112-21.698-1.98c-6.277-0.755-12.55-1.532-18.822-2.313c-5.623-0.701-11.18-1.725-16.752-2.71
			c-4.605-0.814-9.196-1.696-13.758-2.692c-6.176-1.35-12.299-2.938-18.387-4.662c-7.309-2.071-14.51-4.461-21.549-7.289
			c-10.75-4.317-21.094-9.428-29.942-17.069c-4.888-4.222-9.207-8.949-11.775-15.031c-1.813-4.297-2.165-8.777-1.763-13.343
			c0.389-4.413,2.183-8.349,4.394-12.117C72.775,144.765,75.104,141.755,77.939,139.15z"/>
		<path fill-rule="evenodd" clip-rule="evenodd" fill="#040404" d="M377.278,92.023c2.473-0.078,4.794,0.218,6.946,1.354
			c6.04,3.191,6.347,10.357,0.602,14.046c-4.015,2.577-11.33,2.448-15.27-0.271c-4.897-3.38-4.958-9.587-0.122-13.037
			C371.81,92.423,374.497,91.885,377.278,92.023z M371.889,100.629c-0.059,1.244,0.131,2.6,0.593,3.903
			c0.854,2.415,2.539,3.577,5.05,3.538c2.388-0.037,4.092-1.272,4.839-3.632c0.774-2.447,0.757-4.944,0.127-7.416
			c-0.669-2.626-2.392-3.965-4.971-4c-2.552-0.034-4.307,1.287-5.132,3.834C372.012,98.041,371.873,99.252,371.889,100.629z"/>
		<path fill-rule="evenodd" clip-rule="evenodd" fill="#FE0808" d="M460.562,227.995c0.374-0.7,0.844-0.697,1.239-0.81
			c3.931-1.114,5.8-4.116,7.027-7.69c0.132-0.387,0.169-0.852,0.099-1.254c-0.146-0.844-0.435-1.293-1.513-0.849
			c-4.175,1.724-5.824,0.536-5.469-3.916c0.101-1.268,0.113-2.741,1.705-3.279c1.272-0.43,2.707,0.182,3.815,1.564
			c1.354,1.689,1.364,1.712,3.343,0.705c1.729-0.879,3.364-1.9,4.837-3.188c0.927-0.812,0.721-1.36-0.192-1.935
			c-1.973-1.239-4.15-1.784-6.445-1.908c-1.938-0.104-2.911-1.632-2.077-3.419c1.136-2.433,2.948-4.384,4.713-6.352
			c1.325-1.478,2.751-2.864,4.147-4.275c0.315-0.318,0.788-0.846,0.86,0.149c0.07,0.954,0.823,0.733,1.358,0.874
			c0.807,0.212,0.731-0.5,0.937-0.927c0.212-0.443,0.137-1.283,0.721-1.232c0.914,0.079,2.099,0.232,2.613,0.831
			c0.519,0.602-0.317,1.632-0.521,2.482c-0.176,0.737-0.774,0.383-1.166,0.254c-1.136-0.376-1.951-0.304-2.179,1.116
			c-0.147,0.921-0.855,0.973-1.513,0.642c-1.604-0.809-2.563-0.04-3.551,1.148c-1.56,1.879-3.301,3.608-4.765,5.786
			c2.118,0.354,4.083,0.746,5.876,1.721c1.436,0.78,2.48,1.805,2.868,3.476c0.423,1.823,0.091,3.322-1.344,4.606
			c-1.604,1.438-3.4,2.566-5.369,3.378c-1.001,0.412-1.043,0.864-0.726,1.777c1.021,2.943,0.933,5.735-1.271,8.227
			c-1.233,1.395-2.878,1.717-4.556,2.014C462.972,227.905,461.87,228.079,460.562,227.995z M464.463,215.215
			c0.601-0.174,1.418,0.112,1.846-0.585c0.193-0.313-1.569-1.492-2.227-1.461c-0.656,0.031-1.03,0.403-1.048,1.069
			C463.006,215.248,463.798,215.103,464.463,215.215z"/>
		<path fill-rule="evenodd" clip-rule="evenodd" fill="#040404" d="M233.223,177.343c1.137-1.287,2.223-2.407,3.178-3.629
			c0.921-1.176,0.633-1.803-0.828-2.188c-0.32-0.085-0.91,0.1-0.847-0.476c0.061-0.544,0.608-0.299,0.937-0.303
			c2.033-0.023,4.067-0.02,6.102-0.003c0.291,0.003,0.746-0.179,0.829,0.279c0.097,0.524-0.405,0.43-0.685,0.46
			c-1.104,0.118-1.928,0.696-2.66,1.479c-1.518,1.624-3.032,3.251-4.586,4.839c-0.445,0.454-0.52,0.737-0.092,1.28
			c2.018,2.561,3.973,5.171,5.969,7.749c0.58,0.749,1.204,1.473,2.229,1.638c0.318,0.052,0.527,0.224,0.438,0.58
			c-0.081,0.323-0.372,0.23-0.583,0.23c-3.075,0.008-6.149,0.008-9.224,0c-0.266-0.001-0.633,0.039-0.608-0.383
			c0.021-0.359,0.364-0.349,0.632-0.432c1.367-0.428,1.445-0.623,0.59-1.792c-1.086-1.486-2.217-2.94-3.426-4.538
			c-1.313,1.445-2.616,2.796-3.816,4.231c-0.901,1.077-0.613,1.757,0.754,2.061c0.274,0.062,0.564,0.052,0.842,0.106
			c0.257,0.051,0.637,0.013,0.615,0.413c-0.021,0.403-0.391,0.332-0.652,0.334c-1.797,0.009-3.596,0.051-5.392-0.017
			c-0.751-0.028-2.009,0.439-2.151-0.304c-0.166-0.871,1.182-0.489,1.789-0.876c1.218-0.773,2.189-1.791,3.161-2.822
			c0.908-0.964,1.719-2.042,2.729-2.882c1.246-1.037,1.056-1.819,0.09-2.944c-1.6-1.861-3.018-3.877-4.531-5.813
			c-0.688-0.881-1.244-1.937-2.537-2.105c-0.257-0.034-0.422-0.213-0.372-0.499c0.058-0.328,0.331-0.278,0.551-0.278
			c3.169-0.005,6.339-0.004,9.508-0.001c0.233,0,0.521-0.01,0.54,0.304c0.025,0.4-0.309,0.361-0.585,0.42
			c-1.876,0.395-1.907,0.498-0.728,2.078C231.305,174.752,232.202,175.968,233.223,177.343z"/>
		<path fill-rule="evenodd" clip-rule="evenodd" fill="#030303" d="M373.194,189.286c-2.696,0-5.394,0.009-8.09-0.011
			c-0.319-0.003-0.872,0.239-0.891-0.354c-0.015-0.474,0.479-0.315,0.777-0.363c1.94-0.316,2.065-0.46,2.066-2.481
			c0.003-4.068,0.002-8.137,0.001-12.205c-0.001-1.967-0.139-2.123-2.116-2.414c-0.297-0.044-0.77,0.119-0.727-0.4
			c0.04-0.49,0.507-0.31,0.796-0.311c5.346-0.011,10.691,0.002,16.037-0.021c0.628-0.002,0.812,0.193,0.792,0.807
			c-0.041,1.323-0.003,2.649-0.02,3.974c-0.004,0.289,0.172,0.701-0.352,0.772c-0.527,0.071-0.642-0.326-0.73-0.688
			c-0.332-1.353-0.998-2.455-2.31-3.041c-1.328-0.594-2.757-0.591-4.177-0.593c-1.843-0.004-1.843-0.002-1.843,1.881
			c0,1.562,0.027,3.123-0.013,4.684c-0.018,0.673,0.246,0.793,0.841,0.699c1.264-0.199,2.224-0.775,2.658-2.03
			c0.2-0.577,0.369-1.169,0.499-1.766c0.073-0.334,0.195-0.502,0.551-0.473c0.305,0.024,0.386,0.209,0.386,0.471
			c0,2.934-0.001,5.866,0,8.799c0,0.324-0.097,0.539-0.476,0.534c-0.293-0.004-0.393-0.156-0.453-0.42
			c-0.115-0.505-0.232-1.015-0.412-1.499c-0.266-0.719-0.668-1.365-1.328-1.792c-0.614-0.396-1.382-0.677-2.007-0.415
			c-0.534,0.224-0.221,1.007-0.234,1.537c-0.035,1.419,0.013,2.839-0.022,4.258c-0.023,0.983,0.394,1.528,1.376,1.595
			c3.854,0.262,7.063-0.531,8.431-4.165c0.134-0.354,0.269-0.756,0.781-0.596c0.475,0.148,0.258,0.549,0.216,0.828
			c-0.219,1.447-0.522,2.884-0.693,4.336c-0.088,0.747-0.409,0.887-1.084,0.879C378.683,189.266,375.938,189.286,373.194,189.286z"
			/>
		<path fill-rule="evenodd" clip-rule="evenodd" fill="#030303" d="M208.217,189.286c-2.697,0-5.395,0.009-8.092-0.011
			c-0.324-0.002-0.87,0.236-0.907-0.341c-0.03-0.481,0.466-0.328,0.763-0.376c1.972-0.321,2.082-0.446,2.082-2.458
			c0.002-4.069,0.001-8.14,0-12.21c0-2.001-0.129-2.15-2.091-2.434c-0.299-0.043-0.769,0.123-0.757-0.377
			c0.014-0.5,0.486-0.334,0.777-0.335c5.348-0.009,10.695,0.002,16.043-0.018c0.602-0.003,0.832,0.15,0.811,0.787
			c-0.044,1.323-0.003,2.649-0.021,3.975c-0.004,0.287,0.183,0.699-0.335,0.787c-0.434,0.073-0.545-0.226-0.691-0.544
			c-1.441-3.156-4.744-4.711-7.947-3.782c-0.361,0.104-0.436,0.292-0.436,0.594c-0.001,2.035,0.016,4.069-0.01,6.104
			c-0.01,0.675,0.365,0.619,0.822,0.568c1.487-0.164,2.397-1.014,2.855-2.392c0.133-0.402,0.227-0.821,0.304-1.238
			c0.062-0.33,0.05-0.678,0.544-0.638c0.523,0.042,0.4,0.436,0.401,0.738c0.009,1.987,0.005,3.975,0.005,5.963
			c0,0.757,0.014,1.515-0.007,2.271c-0.009,0.338,0.164,0.806-0.454,0.833c-0.522,0.022-0.428-0.394-0.503-0.687
			c-0.222-0.872-0.45-1.737-1.063-2.441c-0.415-0.478-0.9-0.796-1.531-0.951c-0.936-0.231-1.499-0.242-1.396,1.048
			c0.129,1.599,0.046,3.215,0.03,4.824c-0.009,0.847,0.356,1.368,1.209,1.445c3.365,0.305,7.199-0.233,8.58-4.115
			c0.123-0.347,0.26-0.776,0.771-0.619c0.563,0.174,0.263,0.641,0.218,0.952c-0.2,1.402-0.499,2.792-0.666,4.197
			c-0.087,0.729-0.381,0.904-1.075,0.895C213.707,189.263,210.962,189.286,208.217,189.286z"/>
		<path fill-rule="evenodd" clip-rule="evenodd" fill="#060606" d="M321.197,175.078c0,3.798-0.017,7.558,0.009,11.317
			c0.01,1.503,1.031,1.993,2.335,2.141c0.261,0.029,0.646-0.026,0.655,0.366c0.013,0.537-0.445,0.377-0.734,0.379
			c-2.035,0.014-4.07,0.01-6.105,0.004c-0.265-0.001-0.631,0.087-0.676-0.309c-0.043-0.369,0.297-0.407,0.57-0.482
			c2.357-0.651,2.426-0.741,2.427-3.151c0-3.598,0-7.194,0-10.791c0-1.883-0.475-2.516-2.268-3.009
			c-0.303-0.083-0.769-0.022-0.739-0.468c0.03-0.473,0.494-0.333,0.798-0.334c2.034-0.01,4.07,0.027,6.104-0.023
			c0.673-0.018,1.022,0.328,1.406,0.757c2.686,2.994,5.379,5.98,8.072,8.968c0.301,0.334,0.612,0.657,1.177,1.261
			c-0.01-3.134,0.189-5.895-0.126-8.65c-0.135-1.177-1.106-1.403-2.079-1.565c-0.286-0.048-0.771,0.091-0.717-0.436
			c0.052-0.5,0.512-0.304,0.796-0.307c1.846-0.018,3.691-0.015,5.537-0.002c0.251,0.001,0.617-0.143,0.703,0.254
			c0.102,0.473-0.266,0.545-0.606,0.568c-1.5,0.102-1.983,0.978-1.981,2.381c0.005,4.731-0.033,9.462-0.082,14.192
			c-0.005,0.534,0.325,1.315-0.282,1.558c-0.694,0.277-1.014-0.55-1.405-0.974c-3.916-4.241-7.808-8.505-11.718-12.752
			C321.97,175.647,321.772,175.173,321.197,175.078z"/>
		<path fill-rule="evenodd" clip-rule="evenodd" fill="#060606" d="M333.765,101.778c1.513,0,3.026-0.007,4.539,0.006
			c0.306,0.002,0.762-0.139,0.841,0.292c0.098,0.533-0.419,0.419-0.69,0.426c-1.508,0.041-1.836,0.876-1.804,2.245
			c0.077,3.259,0.037,3.338-3.252,3.945c-3.979,0.733-7.976,1.017-11.893-0.406c-1.16-0.421-2.226-1.022-3.203-1.786
			c-3.709-2.895-3.995-7.853-0.595-11.114c3.26-3.126,7.294-3.749,11.583-3.443c1.419,0.102,2.794,0.456,4.147,0.884
			c0.82,0.259,1.591,0.324,2.115-0.551c0.191-0.319,0.463-0.481,0.83-0.364c0.45,0.143,0.28,0.546,0.285,0.841
			c0.019,1.371,0.03,2.743-0.008,4.113c-0.01,0.353,0.312,0.909-0.378,1.027c-0.573,0.098-0.672-0.388-0.885-0.743
			c-1.818-3.037-4.593-4.249-8.016-4.035c-3.651,0.228-5.76,2.676-5.991,6.793c-0.064,1.138,0.022,2.27,0.262,3.383
			c0.822,3.831,5.402,6.063,9.078,4.434c0.125-0.056,0.335-0.109,0.351-0.193c0.256-1.351,0.263-2.723,0.01-4.061
			c-0.178-0.939-1.082-0.903-1.835-0.978c-0.305-0.03-0.79,0.096-0.776-0.366c0.018-0.608,0.577-0.328,0.887-0.335
			C330.832,101.759,332.299,101.777,333.765,101.778z"/>
		<path fill-rule="evenodd" clip-rule="evenodd" fill="#060606" d="M446.15,108.898c-2.839,0.001-5.678,0.01-8.517-0.01
			c-0.328-0.002-0.89,0.231-0.939-0.295c-0.058-0.599,0.531-0.36,0.852-0.397c1.883-0.221,2.064-0.409,2.065-2.288
			c0.003-3.596,0.003-7.191,0-10.787c-0.001-1.751-0.263-2.012-2.029-2.156c-0.323-0.026-0.899,0.234-0.896-0.34
			c0.003-0.558,0.581-0.344,0.907-0.345c5.44-0.015,10.881-0.003,16.322-0.022c0.639-0.002,0.951,0.119,0.914,0.853
			c-0.059,1.18-0.012,2.365-0.018,3.547c-0.002,0.268,0.078,0.585-0.31,0.688c-0.432,0.114-0.62-0.155-0.714-0.493
			c-0.864-3.104-3.319-3.382-5.948-3.378c-2.729,0.004-2.729-0.002-2.729,2.687c0,0.852,0.08,1.712-0.019,2.553
			c-0.136,1.15,0.419,1.236,1.316,1.071c1.624-0.298,2.39-1.375,2.73-2.876c0.089-0.389,0.011-0.944,0.665-0.866
			c0.688,0.082,0.403,0.65,0.407,1.012c0.023,2.176,0.033,4.353-0.007,6.529c-0.008,0.438,0.373,1.174-0.442,1.261
			c-0.704,0.075-0.529-0.634-0.653-1.042c-0.516-1.689-1.523-2.534-3.088-2.687c-0.663-0.064-0.947,0.062-0.923,0.793
			c0.049,1.465,0.029,2.933,0.024,4.399c-0.002,0.631,0.173,1.193,0.859,1.263c2.864,0.292,5.688,0.322,8.03-1.769
			c0.572-0.511,0.958-1.168,1.271-1.854c0.153-0.334,0.295-0.598,0.703-0.521c0.532,0.1,0.312,0.497,0.265,0.786
			c-0.208,1.306-0.467,2.604-0.647,3.913c-0.111,0.803-0.622,0.781-1.224,0.778C451.639,108.888,448.895,108.897,446.15,108.898z"/>
		<path fill-rule="evenodd" clip-rule="evenodd" fill="#FE0808" d="M328.715,237.769c0.624,0.859,1.183,1.605,1.711,2.373
			c0.123,0.179,0.26,0.479,0.192,0.639c-0.811,1.908,0.219,3.588,0.652,5.328c0.457,1.83,1.016,3.634,1.515,5.453
			c0.1,0.362,0.175,0.741,0.188,1.115c0.069,2.092,0.313,4.371-1.934,5.519c-2.477,1.266-5.007,0.825-7.204-0.779
			c-0.802-0.586-1.116-0.469-1.66,0.159c-1.575,1.816-3.577,2.862-5.947,3.298c-2.27,0.417-3.626-0.187-4.563-2.312
			c-1.099-2.486-1.405-5.182-1.955-7.812c-0.388-1.849-0.604-3.757-1.222-5.524c-0.581-1.663-0.028-2.893,0.844-4.328
			c0.816,1.458,0.928,2.978,1.216,4.438c0.604,3.057,0.89,6.174,1.711,9.189c0.977,3.588,2.084,4.184,5.646,3.063
			c1.041-0.328,2.016-0.811,2.913-1.433c0.181-0.126,0.427-0.317,0.439-0.493c0.025-0.348-0.368-0.378-0.602-0.466
			c-0.395-0.15-0.825-0.2-1.233-0.317c-0.492-0.142-1.26,0.28-1.415-0.553c-0.148-0.793-0.199-1.653,0.479-2.26
			c1.703-1.521,3.635-2.378,5.974-1.787c1.902,0.48,2.449,1.602,1.652,3.393c-0.208,0.468-0.521,0.889-0.8,1.354
			c1.827,1.362,3.721,1.094,5.641,0.299c0.731-0.304,0.909-0.772,0.656-1.572c-1.194-3.777-2.281-7.589-3.502-11.356
			C327.481,240.461,327.473,239.755,328.715,237.769z"/>
		<path fill-rule="evenodd" clip-rule="evenodd" fill="#040404" d="M174.197,170.737c2.078,0.087,4.5-0.219,6.88,0.361
			c3.069,0.748,4.751,2.907,4.267,5.53c-0.333,1.798-1.518,2.883-3.116,3.567c-1.731,0.741-3.579,0.848-5.425,0.802
			c-0.85-0.021-1.173,0.179-1.121,1.089c0.082,1.414,0.061,2.837,0.011,4.254c-0.05,1.4,0.512,2.146,1.964,2.152
			c0.352,0.001,0.932-0.068,0.933,0.4c0,0.675-0.644,0.376-0.995,0.379c-3.026,0.025-6.053,0.021-9.078,0.006
			c-0.283-0.001-0.742,0.189-0.785-0.317c-0.043-0.505,0.441-0.406,0.725-0.46c2.109-0.401,2.129-0.412,2.131-2.52
			c0.003-4.019,0.004-8.037,0-12.056c-0.003-2.007-0.086-2.092-2.091-2.45c-0.29-0.052-0.788,0.109-0.764-0.38
			c0.03-0.596,0.577-0.341,0.894-0.346C170.375,170.723,172.124,170.737,174.197,170.737z M175.699,175.838
			c0,0.992,0.061,1.989-0.018,2.975c-0.069,0.887,0.318,1.034,1.076,0.964c2.19-0.203,3.261-1.573,3.205-4.169
			c-0.05-2.311-1.26-3.573-3.438-3.652c-0.6-0.022-0.863,0.116-0.838,0.766C175.73,173.759,175.699,174.799,175.699,175.838z"/>
		<path fill-rule="evenodd" clip-rule="evenodd" fill="#040404" d="M412.174,180.135c-0.078-2.134,0.289-4.021,1.053-5.824
			c1.065-2.517,3.27-4.008,5.819-3.979c2.548,0.029,4.718,1.578,5.719,4.123c1.406,3.576,1.394,7.192,0.14,10.792
			c-0.936,2.687-3.221,4.374-5.807,4.443c-2.585,0.069-4.852-1.507-5.97-4.197C412.395,183.728,412.045,181.884,412.174,180.135z
			 M420.734,180.135c0.016,0,0.031,0,0.048,0c0-0.945,0.048-1.893-0.012-2.834c-0.097-1.547,0.159-3.125-0.358-4.638
			c-0.236-0.688-0.68-1.128-1.453-1.113c-0.689,0.013-1.176,0.346-1.378,1.009c-0.136,0.446-0.274,0.911-0.288,1.372
			c-0.088,2.971-0.183,5.943-0.188,8.915c-0.002,1.362,0.131,2.733,0.324,4.083c0.117,0.824,0.546,1.519,1.567,1.522
			c0.955,0.004,1.269-0.631,1.51-1.402c0.173-0.551,0.229-1.104,0.229-1.674C420.731,183.628,420.734,181.882,420.734,180.135z"/>
		<path fill-rule="evenodd" clip-rule="evenodd" fill="#030303" d="M250.24,189.286c-1.514,0-3.029,0.008-4.543-0.007
			c-0.293-0.002-0.744,0.158-0.77-0.351c-0.018-0.376,0.361-0.358,0.629-0.418c2.227-0.496,2.227-0.497,2.228-2.745
			c0.001-3.929,0.003-7.857-0.001-11.785c-0.002-1.999-0.135-2.148-2.062-2.503c-0.294-0.055-0.792,0.104-0.781-0.37
			c0.015-0.602,0.568-0.356,0.886-0.357c3.313-0.014,6.627-0.052,9.938,0.022c1.854,0.042,3.682,0.357,5.177,1.629
			c2.473,2.102,2.205,5.521-0.59,7.296c-1.883,1.197-4.023,1.334-6.156,1.289c-1.045-0.021-1.407,0.216-1.322,1.307
			c0.107,1.364,0.071,2.744,0.014,4.115c-0.058,1.355,0.502,2.039,1.876,2.089c0.365,0.013,1.034-0.146,0.954,0.485
			c-0.072,0.575-0.705,0.279-1.074,0.289C253.176,189.308,251.708,189.286,250.24,189.286z M252.896,175.779
			c0,1.04,0.048,2.083-0.016,3.119c-0.049,0.801,0.289,0.948,0.992,0.888c2.072-0.178,3.231-1.457,3.286-3.694
			c0.062-2.538-0.896-3.776-3.12-4.099c-0.781-0.114-1.261-0.057-1.162,0.95C252.968,173.88,252.896,174.833,252.896,175.779z"/>
		<path fill-rule="evenodd" clip-rule="evenodd" fill="#040404" d="M428.823,180.077c-0.026-1.955,0.294-3.853,1.027-5.666
			c1.038-2.565,3.313-4.12,5.902-4.078c2.541,0.042,4.744,1.597,5.709,4.141c1.374,3.625,1.396,7.288,0.04,10.923
			c-0.979,2.625-3.203,4.261-5.747,4.29c-2.853,0.033-4.676-1.532-5.835-3.966C429.075,183.95,428.771,182.04,428.823,180.077z
			 M437.442,180.104c-0.064-2.307,0.207-4.628-0.224-6.922c-0.17-0.908-0.525-1.657-1.605-1.627
			c-1.069,0.03-1.404,0.796-1.556,1.699c-0.023,0.14-0.06,0.278-0.069,0.419c-0.256,4.055-0.328,8.113-0.02,12.165
			c0.086,1.131,0.048,2.519,1.739,2.605c1.03,0.053,1.672-0.976,1.723-2.815C437.481,183.788,437.442,181.946,437.442,180.104z"/>
		<path fill-rule="evenodd" clip-rule="evenodd" fill="#060606" d="M286.167,186.107c-0.001-0.946,0-1.893-0.001-2.838
			c0-0.331-0.056-0.7,0.417-0.755c0.411-0.047,0.578,0.201,0.663,0.572c0.203,0.881,0.581,1.689,1.084,2.439
			c1.48,2.21,4.091,3.375,6.473,2.876c1.131-0.237,2.069-0.795,2.38-1.964c0.328-1.237-0.393-2.089-1.34-2.733
			c-1.731-1.176-3.764-1.752-5.587-2.748c-1.643-0.896-3.187-1.916-3.822-3.803c-0.799-2.371,0.37-4.899,2.832-6.112
			c2.31-1.137,4.65-0.989,7.01-0.09c0.936,0.356,2.043,1.224,2.628-0.502c0.034-0.1,0.321-0.169,0.485-0.159
			c0.309,0.021,0.315,0.293,0.32,0.527c0.035,1.749,0.064,3.499,0.1,5.248c0.007,0.326-0.086,0.541-0.461,0.563
			c-0.399,0.023-0.442-0.267-0.522-0.538c-0.388-1.305-1.08-2.41-2.171-3.237c-1.426-1.081-3.01-1.58-4.791-1.15
			c-0.973,0.235-1.756,0.791-2.002,1.803c-0.251,1.034,0.43,1.666,1.182,2.223c1.115,0.824,2.41,1.291,3.656,1.853
			c1.465,0.661,2.934,1.32,4.215,2.307c2.968,2.285,2.957,6.034-0.048,8.293c-2.334,1.755-4.968,1.896-7.704,1.245
			c-1.437-0.343-2.869-1.491-4.244,0.244c-0.289,0.365-0.764,0.002-0.754-0.581C286.179,188.094,286.168,187.101,286.167,186.107z"
			/>
		<path fill-rule="evenodd" clip-rule="evenodd" fill="#040404" d="M422.867,92.272c2.088,0.047,4.554-0.162,6.98,0.386
			c2.756,0.623,4.359,2.125,4.384,4.106c0.024,2.021-1.484,3.538-4.228,4.261c-1.57,0.415-3.177,0.456-4.783,0.442
			c-0.747-0.007-1.108,0.195-1.048,1.042c0.076,1.082,0.003,2.174,0.021,3.261c0.033,1.963,0.186,2.112,2.143,2.413
			c0.309,0.047,0.894-0.193,0.827,0.432c-0.048,0.448-0.533,0.274-0.828,0.275c-3.167,0.013-6.335,0.013-9.502,0
			c-0.294-0.001-0.78,0.172-0.828-0.275c-0.067-0.625,0.518-0.384,0.827-0.432c1.877-0.292,2.101-0.445,2.128-2.303
			c0.053-3.545,0.055-7.091,0.003-10.636c-0.027-1.895-0.221-2.016-2.278-2.271c-0.303-0.037-0.77,0.087-0.711-0.418
			c0.038-0.337,0.44-0.278,0.713-0.279C418.626,92.27,420.564,92.272,422.867,92.272z M424.187,96.844
			c0,0.898,0.018,1.798-0.007,2.696c-0.014,0.496,0.077,0.752,0.673,0.805c1.899,0.17,3.512-1.005,3.778-2.839
			c0.32-2.206-0.719-3.61-2.807-3.987c-1.299-0.235-1.859,0.096-1.652,1.483C424.262,95.604,424.188,96.229,424.187,96.844z"/>
		<path fill-rule="evenodd" clip-rule="evenodd" fill="#060606" d="M360.666,184.792c0.292,1.131,0.176,1.86-0.66,2.534
			c-4.054,3.271-11.621,3.255-15.634-0.09c-4.992-4.162-4.188-11.716,1.652-15.188c3.071-1.826,6.384-2.24,9.848-1.386
			c0.872,0.215,1.733,0.473,2.591,0.74c0.729,0.228,1.319,0.112,1.661-0.619c0.151-0.322,0.276-0.615,0.703-0.5
			c0.468,0.125,0.31,0.528,0.313,0.821c0.018,1.515,0.035,3.03-0.01,4.543c-0.012,0.405,0.343,1.041-0.347,1.195
			c-0.688,0.154-0.654-0.534-0.818-0.925c-0.862-2.056-2.351-3.406-4.509-3.955c-3.889-0.989-7.396,1.281-8.25,5.3
			c-0.41,1.931-0.353,3.858,0.108,5.767c1.124,4.653,5.418,6.561,9.828,4.402C358.428,186.803,359.434,185.806,360.666,184.792z"/>
		<path fill-rule="evenodd" clip-rule="evenodd" fill="#060606" d="M451.021,177.773c0.452-0.102,0.673-0.155,0.895-0.2
			c3.823-0.788,6.594,0.803,7.267,4.168c0.733,3.67-1.468,7.071-5.045,7.8c-5.291,1.075-9.498-3.32-8.576-8.961
			c0.884-5.415,5.313-9.443,11.112-10.096c0.704-0.079,1.413-0.11,2.12-0.146c0.228-0.012,0.508-0.015,0.533,0.307
			c0.022,0.291-0.2,0.375-0.451,0.434c-1.153,0.27-2.277,0.627-3.346,1.147C453.239,173.34,451.744,175.103,451.021,177.773z
			 M450.498,181.873c0.017,1.898,0.165,3.678,0.926,5.339c0.326,0.714,0.823,1.331,1.714,1.206c0.881-0.124,1.242-0.846,1.347-1.616
			c0.261-1.925,0.213-3.851-0.31-5.733c-0.162-0.585-0.433-1.146-0.942-1.543c-0.663-0.517-1.359-0.519-2.128-0.247
			c-0.781,0.275-0.5,0.905-0.55,1.425C450.515,181.124,450.513,181.549,450.498,181.873z"/>
		<path fill-rule="evenodd" clip-rule="evenodd" fill="#FE0808" d="M299.216,242.086c0.599,0.982,1.017,1.719,1.487,2.419
			c0.246,0.367,0.267,0.734,0.065,1.063c-0.549,0.896-0.364,1.796-0.139,2.725c0.578,2.384,1.171,4.766,1.686,7.163
			c0.379,1.761,1.301,2.868,3.144,3.156c0.809,0.126,1.513,0.416,1.685,1.426c0.321,1.883-0.146,2.406-1.908,1.818
			c-1.863-0.621-3.504-0.537-5.234,0.58c-1.936,1.249-4.067,1.586-5.987-0.193c-0.406-0.377-0.539-0.253-0.852,0.079
			c-1.424,1.514-3.288,2.005-5.271,1.998c-2.543-0.009-3.898-1.178-5.029-4.247c-1.169,1.593-2.861,1.882-4.584,2.064
			c-1.625,0.172-1.994-0.277-1.764-1.911c0.223-1.578,1.16-2.632,2.373-3.539c1.195-0.894,2.761-1.521,2.465-3.52
			c-0.053-0.358,0.224-0.901,0.754-1.15c0.588,0.737,0.586,1.673,0.851,2.504c0.329,1.032,0.573,2.092,0.835,3.144
			c0.484,1.945,1.563,3.506,3.61,3.698c2.319,0.217,4.692,0.029,6.063-2.403c0.156-0.278,0.237-0.688,0.629-0.686
			c0.454,0.003,0.409,0.471,0.473,0.751c0.195,0.869,0.827,1.327,1.583,1.431c1.76,0.241,3.338-0.421,4.854-1.239
			c0.488-0.264,0.231-0.663,0.153-0.997c-0.979-4.13-1.928-8.269-2.982-12.379C297.803,244.396,298.532,243.425,299.216,242.086z
			 M278.428,259.037c1.486,0.25,2.732,0.082,3.648-0.71c0.505-0.438-0.084-1.228-0.374-1.91
			C280.553,257.235,279.487,257.907,278.428,259.037z"/>
		<path fill-rule="evenodd" clip-rule="evenodd" fill="#030303" d="M397.172,92.273c1.655,0,3.31-0.006,4.964,0.007
			c0.296,0.002,0.756-0.105,0.697,0.42c-0.044,0.396-0.438,0.245-0.691,0.268c-2.302,0.207-2.373,0.28-2.374,2.528
			c0,2.742-0.011,5.484,0.003,8.226c0.014,2.781,1.166,3.942,3.954,4.025c3.518,0.104,5.33-1.465,5.481-4.951
			c0.11-2.548,0.015-5.105,0.025-7.657c0.006-1.486-0.79-2.122-2.199-2.169c-0.292-0.01-0.773,0.138-0.745-0.374
			c0.026-0.499,0.506-0.312,0.792-0.314c2.033-0.017,4.065-0.012,6.099-0.004c0.266,0.001,0.658-0.076,0.701,0.286
			c0.062,0.535-0.412,0.368-0.703,0.407c-1.886,0.252-2.218,0.632-2.239,2.552c-0.028,2.55-0.012,5.103-0.107,7.651
			c-0.118,3.131-1.155,4.601-4.141,5.493c-3.047,0.91-6.156,0.938-9.167-0.261c-2.164-0.861-3.203-2.533-3.201-4.859
			c0.003-2.789,0.007-5.578-0.001-8.368c-0.005-1.812-0.181-1.998-1.979-2.206c-0.308-0.036-0.785,0.094-0.778-0.367
			c0.007-0.473,0.494-0.322,0.787-0.325C393.957,92.264,395.564,92.273,397.172,92.273z"/>
		<path fill-rule="evenodd" clip-rule="evenodd" fill="#FE0808" d="M497.935,179.777c0.455,1.643,0.345,2.696-0.652,3.734
			c-2.131,2.218-4.087,4.596-5.886,7.096c-0.291,0.405-0.692,0.768-0.764,1.411c2.158,0.094,4.163,0.646,6.125,1.494
			c2.916,1.258,4.319,5.856,1.185,8.326c-1.531,1.207-3.089,2.353-4.816,3.228c-2.506,1.27-4.412,0.723-6.949-1.877
			c-0.618,2.158-2.382,3.006-4.205,3.793c-0.859,0.37-1.28,0.064-1.559-0.801c-0.573-1.788-0.11-3.338,0.88-4.827
			c0.805-1.21,1.961-2.315,1.075-4.027c-0.17-0.328-0.249-1.087,0.204-1.287c0.551-0.244,0.719,0.46,0.976,0.803
			c1.021,1.36,1.953,2.792,3.016,4.119c1.602,1.999,3.49,2.383,5.775,1.246c1.998-0.994,3.824-2.236,5.479-3.751
			c0.972-0.891,0.732-1.473-0.262-2.026c-1.989-1.107-4.145-1.544-6.398-1.579c-2.136-0.032-3.158-1.57-2.241-3.517
			c1.47-3.116,3.757-5.66,5.979-8.238C495.813,182.032,496.791,181.021,497.935,179.777z M483.925,200.041
			c-0.878,1.275-1.725,2.298-2.163,3.654c1.201-0.228,2.994-1.261,3.133-1.841C485.082,201.069,484.257,200.802,483.925,200.041z"/>
		<path fill-rule="evenodd" clip-rule="evenodd" fill="#FE0808" d="M422.361,212.816c1.603,2.792,2.65,5.517,3.753,8.214
			c0.857,2.096,1.682,4.205,2.525,6.308c0.424,1.057,0.989,2.013,2.122,2.898c-0.032-2.911,1.142-4.994,3.329-6.542
			c1.024-0.725,1.799-0.872,2.791,0.213c1.646,1.799,4.053,1.166,5.142-1.158c0.46-0.983,0.234-2.131,0.753-3.101
			c0.573,0.12,0.516,0.573,0.646,0.891c0.502,1.234,1.439,1.768,2.688,1.485c0.408-0.093,0.883-0.151,1.066-0.601
			c0.213-0.52-0.253-0.732-0.546-1.025c-1.102-1.101-0.057-2.175-0.092-3.368c2.174,1.576,2.663,5.39,1.058,7.191
			c-1.031,1.158-2.511,1.238-4.409,0.207c-0.17,0.389-0.321,0.781-0.509,1.154c-1.117,2.22-3.205,2.819-5.341,1.559
			c-0.701-0.414-1.31-1.225-2.279-0.739c-1.204,0.603-2.258,1.419-2.859,2.651c-0.359,0.738-0.009,1.373,0.613,1.858
			c0.82,0.642,1.812,0.765,2.79,0.92c1.026,0.163,1.855,2.158,1.211,2.979c-0.265,0.337-0.691,0.249-1.058,0.242
			c-3.487-0.066-6.19-1.359-7.769-4.683c-1.745-3.672-3.021-7.531-4.68-11.235c-0.328-0.731-0.553-1.553-1.038-2.162
			C421.188,215.616,421.635,214.368,422.361,212.816z"/>
		<path fill-rule="evenodd" clip-rule="evenodd" fill="#060606" d="M400.301,185.447c2.093,0,3.911,0.029,5.728-0.014
			c0.836-0.02,1.346-0.604,1.727-1.3c0.194-0.354,0.547-0.423,0.856-0.29c0.347,0.148,0.144,0.481,0.088,0.738
			c-0.271,1.243-0.566,2.481-0.813,3.729c-0.135,0.68-0.377,1.013-1.186,1.001c-3.543-0.055-7.088-0.019-10.633-0.033
			c-0.296-0.001-0.707,0.196-0.877-0.213c-0.159-0.385,0.213-0.58,0.42-0.818c1.77-2.029,3.568-4.033,5.301-6.093
			c1.043-1.239,1.775-2.655,2.024-4.295c0.263-1.729-0.271-3.025-1.595-3.734c-1.313-0.702-3.019-0.436-4.189,0.668
			c-0.205,0.193-0.39,0.412-0.56,0.638c-0.224,0.295-0.468,0.448-0.844,0.274c-0.481-0.223-0.205-0.521-0.108-0.82
			c1.316-4.061,6.205-5.872,9.843-3.644c2.302,1.409,2.957,3.893,1.699,6.546c-1.226,2.587-3.374,4.396-5.388,6.318
			C401.369,184.512,400.919,184.893,400.301,185.447z"/>
		<path fill-rule="evenodd" clip-rule="evenodd" fill="#5153EF" d="M524.994,157.787c0.019-0.24,0.038-0.479,0.058-0.713
			c1.593-2.42,3.149-4.862,4.244-7.573c1.771-4.388,2.417-8.999,1.722-13.599c-0.586-3.884-2.291-7.479-4.392-10.891
			c-2.674-4.343-6.306-7.782-10.106-10.989c-4.175-3.521-8.835-6.401-13.636-9.077c-6.121-3.411-12.563-6.007-19.057-8.556
			c-4.902-1.924-9.922-3.45-14.93-5.051c-5.691-1.819-11.455-3.362-17.273-4.64c-4.163-0.915-8.305-1.981-12.553-2.554
			c-2.268-0.305-4.489-0.988-6.773-1.327c-2.781-0.412-5.545-0.948-8.314-1.435c-0.733-0.129-1.52-0.1-2.111-0.676
			c1.338-0.587,2.599,0.251,3.762,0.522c1.495,0.348,3.047,0.437,4.538,0.753c1.606,0.341,3.297,0.622,4.966,0.831
			c2.439,0.305,4.813,1.118,7.25,1.463c2.14,0.304,4.195,0.913,6.301,1.329c2.269,0.449,4.545,0.846,6.77,1.537
			c1.854,0.576,3.802,0.85,5.688,1.333c1.57,0.402,3.1,0.941,4.684,1.323c2.241,0.541,4.406,1.394,6.621,2.053
			c3.242,0.963,6.443,2.037,9.607,3.231c4.257,1.606,8.476,3.292,12.643,5.13c2.993,1.32,5.856,2.805,8.713,4.391
			c2.499,1.387,4.977,2.784,7.389,4.318c5.244,3.334,9.799,7.491,13.857,12.124c2.644,3.018,4.327,6.68,5.75,10.51
			c1.513,4.073,0.966,8.159,1.014,12.254c0.021,1.711-0.861,3.312-1.3,4.964c-0.755,2.846-2.266,5.412-3.969,7.83
			C525.838,157.056,525.624,157.633,524.994,157.787z"/>
		<path fill-rule="evenodd" clip-rule="evenodd" fill="#030303" d="M131.969,180.154c0,1.984-0.006,3.969,0.002,5.953
			c0.008,1.89,0.234,2.144,2.137,2.45c0.304,0.049,0.773-0.086,0.764,0.386c-0.01,0.486-0.484,0.336-0.781,0.337
			c-3.213,0.01-6.426,0.009-9.638,0c-0.255-0.001-0.642,0.106-0.688-0.282c-0.064-0.535,0.402-0.381,0.691-0.43
			c2.141-0.363,2.208-0.441,2.209-2.621c0-4.016,0.002-8.031-0.001-12.047c-0.002-1.985-0.19-2.197-2.091-2.444
			c-0.301-0.038-0.789,0.129-0.809-0.321c-0.026-0.617,0.545-0.382,0.856-0.384c3.118-0.021,6.235-0.019,9.354-0.003
			c0.329,0.001,0.882-0.212,0.896,0.358c0.011,0.444-0.479,0.313-0.789,0.354c-1.856,0.249-2.103,0.532-2.11,2.459
			C131.963,175.997,131.969,178.076,131.969,180.154z"/>
		<path fill-rule="evenodd" clip-rule="evenodd" fill="#030303" d="M309.127,189.286c-1.608,0-3.217,0.002-4.825-0.003
			c-0.272-0.001-0.619,0.043-0.584-0.39c0.025-0.305,0.302-0.278,0.53-0.331c2.32-0.539,2.32-0.543,2.321-2.968
			c0.001-3.927,0.006-7.854-0.003-11.78c-0.003-1.829-0.248-2.094-2.064-2.356c-0.3-0.044-0.79,0.12-0.776-0.354
			c0.017-0.594,0.57-0.352,0.891-0.354c3.075-0.02,6.15-0.02,9.226,0c0.32,0.002,0.9-0.227,0.891,0.348
			c-0.01,0.533-0.582,0.339-0.918,0.359c-1.296,0.08-1.943,0.631-1.928,2.044c0.046,4.254,0.037,8.509-0.033,12.763
			c-0.025,1.556,0.603,2.282,2.136,2.305c0.283,0.005,0.773-0.138,0.75,0.375c-0.023,0.484-0.492,0.332-0.786,0.336
			C312.345,189.294,310.735,189.286,309.127,189.286z"/>
		<path fill-rule="evenodd" clip-rule="evenodd" fill="#FE0808" d="M145.711,251.746c0.824-0.252,1.608-0.537,2.414-0.729
			c2.467-0.586,4.674,0.898,5.113,3.406c0.608,3.466-1.782,6.423-5.629,6.94c-0.561,0.075-1.133,0.104-1.697,0.096
			c-1.871-0.029-1.87-0.04-2.07,1.893c-0.039,0.376-0.047,0.763-0.142,1.124c-0.286,1.094,0.122,1.714,1.207,1.975
			c0.409,0.099,1.147,0.013,1.038,0.642c-0.143,0.813-0.85,0.301-1.291,0.262c-1.882-0.165-3.759-0.382-5.637-0.59
			c-0.338-0.038-0.836,0.122-0.82-0.487c0.015-0.581,0.514-0.502,0.846-0.49c1.125,0.04,1.449-0.651,1.59-1.584
			c0.563-3.735,1.125-7.471,1.714-11.202c0.12-0.761-0.198-1.143-0.866-1.392c-0.273-0.102-0.711-0.166-0.572-0.648
			c0.123-0.43,0.502-0.327,0.822-0.357c0.798-0.075,1.599-0.138,2.389-0.266C145.84,250.059,145.836,250.043,145.711,251.746z
			 M150.16,256.514c0.068-2.879-1.386-4.462-3.439-4.126c-0.857,0.141-1.465,0.438-1.521,1.496
			c-0.064,1.218-0.306,2.429-0.514,3.635c-0.226,1.304,0.179,2.226,1.481,2.652c1.365,0.447,2.596,0.013,3.303-1.18
			C149.989,258.117,150.155,257.146,150.16,256.514z"/>
		<path fill-rule="evenodd" clip-rule="evenodd" fill="#FE0A0A" d="M202.806,257.278c0.903-0.386,1.802-0.903,2.837-1.103
			c2.41-0.463,4.279,0.904,4.367,3.34c0.061,1.65-0.002,3.308-0.078,4.959c-0.037,0.814,0.098,1.387,1.021,1.535
			c0.297,0.048,0.707,0.135,0.59,0.615c-0.105,0.432-0.466,0.381-0.799,0.366c-1.605-0.072-3.21-0.137-4.814-0.213
			c-0.264-0.013-0.605,0.063-0.678-0.325c-0.086-0.468,0.246-0.543,0.599-0.581c0.835-0.091,1.06-0.609,1.059-1.381
			c0-1.511,0.153-3.026,0.073-4.531c-0.104-1.978-2.332-2.962-3.992-1.863c-0.477,0.315-0.518,0.763-0.537,1.23
			c-0.057,1.464-0.094,2.928-0.137,4.392c-0.027,0.934-0.262,1.975,1.184,2.09c0.262,0.021,0.383,0.266,0.322,0.532
			c-0.058,0.257-0.22,0.38-0.508,0.364c-1.793-0.099-3.586-0.185-5.379-0.278c-0.271-0.014-0.424-0.158-0.43-0.442
			c-0.006-0.289,0.164-0.445,0.42-0.463c1.267-0.084,1.287-0.969,1.313-1.923c0.038-1.368,0.132-2.737,0.239-4.103
			c0.066-0.842,0.084-1.617-0.904-1.971c-0.199-0.072-0.469-0.199-0.365-0.506c0.077-0.234,0.268-0.393,0.523-0.405
			c1.14-0.056,2.225-0.403,3.336-0.595C203.182,255.828,202.256,256.898,202.806,257.278z"/>
		<path fill-rule="evenodd" clip-rule="evenodd" fill="#FE0808" d="M116.249,254.894c-1.13,0.336-2.187,0.883-3.403,0.847
			c-2.335-0.068-3.604-1.507-3.205-3.784c0.3-1.718,0.65-3.428,1.021-5.132c0.169-0.777,0.182-1.409-0.747-1.676
			c-0.277-0.08-0.538-0.239-0.448-0.599c0.113-0.453,0.451-0.364,0.793-0.313c1.025,0.154,2.053,0.314,3.084,0.416
			c0.699,0.068,0.666,0.361,0.529,0.942c-0.476,2.018-0.951,4.041-1.264,6.087c-0.246,1.616,0.645,2.529,2.241,2.534
			c1.044,0.004,1.808-0.352,1.989-1.545c0.211-1.397,0.479-2.789,0.794-4.167c0.235-1.03,0.11-1.75-1.083-1.997
			c-0.281-0.06-0.841-0.104-0.605-0.71c0.176-0.454,0.527-0.277,0.836-0.234c1.168,0.159,2.332,0.38,3.504,0.469
			c0.839,0.064,0.844,0.391,0.69,1.096c-0.481,2.21-0.857,4.443-1.306,6.661c-0.169,0.833-0.23,1.536,0.9,1.619
			c0.227,0.017,0.51,0.024,0.493,0.354c-0.017,0.331-0.241,0.483-0.562,0.513c-0.846,0.078-1.69,0.189-2.539,0.23
			C116.274,256.587,116.273,256.571,116.249,254.894z"/>
		<path fill-rule="evenodd" clip-rule="evenodd" fill="#FE0808" d="M92.961,249.96c-1.063,0.177-2.052,0.685-3.173,0.626
			c-2.392-0.125-3.628-1.647-3.124-3.985c0.358-1.658,0.801-3.297,1.203-4.946c0.188-0.77,0.313-1.521-0.705-1.828
			c-0.319-0.096-0.479-0.301-0.382-0.63c0.11-0.375,0.435-0.309,0.7-0.263c1.115,0.19,2.227,0.407,3.342,0.602
			c0.738,0.129,0.396,0.554,0.291,0.946c-0.497,1.867-1.03,3.727-1.451,5.61c-0.406,1.817,0.313,2.85,1.996,3.009
			c1.1,0.104,1.932-0.208,2.174-1.462c0.27-1.388,0.535-2.785,0.951-4.132c0.332-1.078,0.146-1.716-0.982-2.025
			c-0.307-0.084-0.824-0.138-0.604-0.703c0.214-0.544,0.631-0.229,0.967-0.172c1.117,0.187,2.225,0.449,3.348,0.565
			c0.768,0.081,0.913,0.274,0.705,1.051c-0.584,2.185-1.012,4.411-1.584,6.599c-0.241,0.925-0.273,1.588,0.877,1.739
			c0.25,0.033,0.47,0.112,0.396,0.435c-0.058,0.249-0.201,0.421-0.48,0.425c-1.275,0.016-2.553,0.089-3.824,0.027
			c-1.061-0.052-0.278-0.857-0.426-1.293c-0.01-0.116-0.02-0.231-0.029-0.347C93.084,249.859,93.023,249.91,92.961,249.96z"/>
		<path fill-rule="evenodd" clip-rule="evenodd" fill="#FE0A0A" d="M87.26,231.602c0.371,0.085,0.938,0.161,1.465,0.352
			c0.584,0.21,1.19,0.552,1.312,1.192c0.138,0.727-0.603,0.986-1.036,1.386c-0.471,0.435-0.873,0.433-1.275-0.146
			c-0.292-0.42-0.658-0.816-1.066-1.121c-0.833-0.621-1.605-0.498-2.15,0.415c-0.637,1.068-0.882,2.278-1.168,3.471
			c-0.22,0.915,0.602,0.697,1.001,0.987c0.509,0.368,1.847-0.258,1.527,1.037c-0.325,1.321-1.339,0.51-1.954,0.294
			c-0.945-0.331-1.223-0.02-1.407,0.838c-0.358,1.658-0.723,3.323-1.227,4.94c-0.37,1.189-0.141,1.899,1.078,2.279
			c0.273,0.085,0.866,0.102,0.582,0.709c-0.194,0.415-0.511,0.269-0.843,0.179c-1.775-0.483-3.557-0.939-5.332-1.42
			c-0.291-0.079-0.738-0.068-0.648-0.561c0.08-0.434,0.449-0.435,0.787-0.375c0.908,0.159,1.241-0.315,1.445-1.126
			c0.447-1.782,0.947-3.554,1.48-5.313c0.227-0.744,0.227-1.266-0.67-1.461c-0.23-0.05-0.652-0.046-0.484-0.483
			c0.104-0.275,0.365-0.446,0.685-0.397c0.983,0.15,1.228-0.482,1.515-1.249C81.942,233.194,84.145,231.888,87.26,231.602z"/>
		<path fill-rule="evenodd" clip-rule="evenodd" fill="#FE0A0A" d="M221.533,262.363c0,0.613,0.023,1.229-0.006,1.841
			c-0.044,0.907,0.068,1.646,1.262,1.513c0.212-0.023,0.489-0.128,0.557,0.217c0.059,0.305-0.078,0.534-0.297,0.748
			c-1.035,1.009-3.178,0.993-4.143-0.148c-0.34-0.403-0.5-0.225-0.793-0.104c-0.607,0.253-1.211,0.528-1.84,0.722
			c-2.12,0.654-4.004-1.145-3.521-3.321c0.169-0.758,0.51-1.268,1.332-1.447c1.195-0.261,2.377-0.594,3.559-0.92
			c1.31-0.362,1.664-1.58,0.783-2.642c-1.018-1.229-2.932-1.1-3.848,0.226c-0.238,0.343-0.243,1.199-1.051,0.684
			c-0.69-0.441-0.145-0.951,0.032-1.352c0.486-1.098,3.534-2.259,5.021-1.981c1.735,0.325,2.837,1.47,3.017,3.274
			c0.09,0.889,0.016,1.794,0.016,2.691C221.587,262.363,221.56,262.363,221.533,262.363z M218.821,263.661
			c0.042-1.653,0.042-1.653-1.515-1.203c-0.226,0.065-0.452,0.126-0.68,0.185c-0.635,0.161-1.161,0.451-1.176,1.196
			c-0.016,0.787,0.389,1.339,1.098,1.653C217.984,266.13,218.775,265.489,218.821,263.661z"/>
		<path fill-rule="evenodd" clip-rule="evenodd" fill="#FE0808" d="M163.99,256.53c-0.158,1.207-0.342,2.661-0.545,4.112
			c-0.125,0.89,0.084,1.504,1.124,1.529c0.214,0.006,0.504-0.085,0.552,0.257c0.036,0.253-0.107,0.44-0.291,0.609
			c-1.04,0.963-3.386,0.809-4.154-0.373c-0.287-0.441-0.461-0.456-0.871-0.309c-0.575,0.207-1.166,0.384-1.764,0.516
			c-2.203,0.486-3.953-1.343-3.349-3.512c0.212-0.761,0.602-1.337,1.535-1.428c1.315-0.128,2.616-0.398,3.929-0.563
			c0.82-0.103,1.113-0.523,1.087-1.325c-0.036-1.091-0.569-1.753-1.57-2.107c-0.978-0.346-1.821-0.319-2.537,0.592
			c-0.278,0.354-0.419,1.316-1.204,0.706c-0.653-0.509-0.031-1.058,0.242-1.474c0.682-1.036,3.965-1.739,5.409-1.229
			C163.211,253.108,164.039,254.395,163.99,256.53z M160.927,259.145c-0.128-0.399,0.373-1.007-0.567-0.988
			c-1.811,0.035-2.861,0.536-2.907,1.543c-0.045,0.985,0.791,1.851,1.894,1.864C161.162,261.586,160.572,260.046,160.927,259.145z"
			/>
		<path fill-rule="evenodd" clip-rule="evenodd" fill="#FE0A0A" d="M252.478,263.975c0.228,0.624-0.062,0.954-0.341,1.27
			c-1.669,1.884-5.477,2.573-7.611,1.386c-1.895-1.054-2.865-3.964-2.18-6.537c0.578-2.167,2.453-3.652,4.886-3.87
			c2.405-0.216,3.593,0.524,4.722,2.939c0.682,1.456,0.683,1.466-1.016,1.655c-1.69,0.188-3.381,0.429-5.078,0.502
			c-1.03,0.044-1.045,0.474-0.801,1.236c0.712,2.227,3.283,3.265,5.736,2.277C251.356,264.608,251.879,264.284,252.478,263.975z
			 M246.515,260.234c0.42-0.019,0.755-0.005,1.079-0.055c0.529-0.08,1.311,0.141,1.484-0.466c0.158-0.553-0.245-1.171-0.637-1.663
			c-0.272-0.341-0.604-0.59-1.039-0.688c-0.758-0.173-1.41-0.012-1.897,0.618c-0.45,0.58-0.823,1.313-0.546,1.964
			C245.242,260.609,246.051,260.077,246.515,260.234z"/>
		<path fill-rule="evenodd" clip-rule="evenodd" fill="#FE0A0A" d="M196.28,263.433c0.15,0.624-0.112,0.912-0.374,1.179
			c-1.602,1.631-5.344,2.104-7.457,0.953c-1.777-0.969-2.704-3.494-2.198-5.988c0.665-3.276,4.3-5.216,7.464-4.071
			c1.947,0.705,2.23,2.558,2.97,4.07c0.229,0.469-0.536,0.555-0.919,0.565c-1.842,0.051-3.686,0.065-5.527,0.067
			c-1.374,0.002-1.549,0.231-1.094,1.549c0.758,2.203,3.305,3.208,5.783,2.271C195.357,263.866,195.771,263.659,196.28,263.433z
			 M191.389,259.154c0.547-0.22,1.57,0.525,1.861-0.4c0.256-0.81-0.262-1.661-1.024-2.181c-0.696-0.475-1.436-0.471-2.106,0.054
			c-0.67,0.524-1.168,1.329-0.993,2.083c0.185,0.796,1.139,0.234,1.724,0.416C190.98,259.167,191.132,259.143,191.389,259.154z"/>
		<path fill-rule="evenodd" clip-rule="evenodd" fill="#FE0808" d="M184.553,263.958c-0.491,1.264-1.807,1.808-3.621,1.5
			c-1.619-0.274-2.465-1.023-2.416-2.438c0.064-1.93,0.277-3.855,0.477-5.777c0.079-0.769,0.143-1.419-0.906-1.47
			c-0.228-0.011-0.609,0.004-0.503-0.457c0.071-0.307,0.226-0.536,0.552-0.545c1.122-0.03,1.2-0.783,1.211-1.645
			c0.008-0.667,1.986-2.16,2.627-2.031c0.202,0.041,0.339,0.146,0.313,0.378c-0.016,0.141-0.05,0.279-0.062,0.42
			c-0.078,0.89-0.486,1.951-0.141,2.625c0.402,0.786,1.629,0.194,2.459,0.444c0.315,0.096,0.881-0.036,0.66,0.602
			c-0.134,0.392-0.055,0.958-0.818,0.897c-0.844-0.067-1.947-0.691-2.482,0.102c-0.441,0.654-0.262,1.731-0.348,2.622
			c-0.076,0.798-0.176,1.596-0.202,2.396c-0.063,1.945,0.467,2.442,2.403,2.353C184.02,263.921,184.297,263.712,184.553,263.958z"/>
		<path fill-rule="evenodd" clip-rule="evenodd" fill="#FE0808" d="M104.638,253.857c-3.036,0.006-4.206-1.352-3.677-3.999
			c0.322-1.615,0.729-3.214,1.109-4.817c0.155-0.653,0.217-1.216-0.687-1.346c-0.228-0.032-0.609-0.108-0.517-0.499
			c0.08-0.338,0.307-0.631,0.701-0.555c1.111,0.214,1.18-0.597,1.352-1.322c0.168-0.712,2.274-1.99,2.934-1.798
			c0.229,0.066,0.289,0.201,0.254,0.406c-0.031,0.185-0.078,0.368-0.121,0.551c-0.611,2.569-0.611,2.57,1.9,3.264
			c0.331,0.092,0.863,0.006,0.592,0.635c-0.154,0.359-0.152,0.899-0.783,0.807c-0.139-0.02-0.277-0.047-0.417-0.071
			c-2.339-0.413-2.344-0.414-2.854,1.877c-0.215,0.966-0.445,1.931-0.598,2.906c-0.285,1.836,0.176,2.411,1.98,2.637
			c0.288,0.037,0.732-0.248,0.844,0.207c0.111,0.458-0.301,0.666-0.662,0.779C105.455,253.686,104.9,253.793,104.638,253.857z"/>
		<path fill-rule="evenodd" clip-rule="evenodd" fill="#FE0A0A" d="M236.344,258.402c0.994-0.764,1.629-1.656,2.688-1.888
			c0.758-0.167,1.533-0.229,2.031,0.541c0.234,0.363-0.572,2.31-0.984,2.544c-0.395,0.224-0.608-0.119-0.883-0.258
			c-1.934-0.976-2.83-0.409-2.801,1.776c0.016,1.183,0.063,2.366,0.037,3.548c-0.021,0.971,0.313,1.528,1.359,1.57
			c0.374,0.015,0.99-0.115,0.988,0.506c-0.001,0.629-0.59,0.484-0.986,0.491c-1.75,0.03-3.5,0.038-5.25,0.056
			c-0.328,0.003-0.713,0.079-0.801-0.365c-0.093-0.468,0.307-0.56,0.62-0.595c0.982-0.109,1.026-0.764,1.005-1.535
			c-0.036-1.324-0.018-2.649-0.025-3.975c-0.006-1.011,0.235-2.042-1.162-2.533c-0.707-0.249-0.168-0.686,0.287-0.769
			c1.119-0.203,2.224-0.436,3.264-0.915c0.439-0.202,0.61,0.02,0.613,0.444C236.346,257.418,236.344,257.791,236.344,258.402z"/>
		<path fill-rule="evenodd" clip-rule="evenodd" fill="#C55387" d="M221.096,84.089c3.54-0.849,7.166-1.178,10.742-1.811
			c6.551-1.16,13.168-1.834,19.764-2.659c4.356-0.545,8.735-0.916,13.104-1.371c4.836-0.502,9.67-1.012,14.505-1.515
			c0.328-0.034,0.66-0.039,0.991-0.046c5.432-0.115,10.842-0.457,16.251-1.058c3.419-0.379,6.9-0.195,10.354-0.271
			c0.566-0.012,1.132-0.061,1.698-0.093c0.324,0.015,0.647,0.029,0.972,0.043c-0.569,0.516-1.284,0.464-1.968,0.477
			c-1.181,0.023-2.371,0.093-3.544-0.013c-4.489-0.404-8.958,0.229-13.365,0.718c-3.45,0.383-6.905-0.051-10.265,0.5
			c-2.789,0.457-5.624,0.128-8.367,0.868c-1.811,0.488-3.73,0.414-5.571,0.581c-2.559,0.232-5.101,0.729-7.687,0.77
			c-2.521,0.04-5.006,0.523-7.494,0.906c-0.373,0.057-0.756,0.242-1.109,0.192c-2.428-0.34-4.781,0.398-7.13,0.676
			c-3.134,0.371-6.294,0.743-9.42,1.332c-3.064,0.576-6.122,1.359-9.278,1.413C223.21,83.748,222.211,84.437,221.096,84.089z"/>
		<path fill-rule="evenodd" clip-rule="evenodd" fill="#FE0808" d="M171.549,253.559c0.307,0.602-0.049,1.154,0.002,1.925
			c0.584-0.386,1.058-0.693,1.525-1.009c0.52-0.353,1.082-0.598,1.718-0.567c0.714,0.035,1.618,0.087,1.622,0.978
			c0.006,0.896-0.635,1.651-1.346,2.217c-0.261,0.206-0.492-0.15-0.723-0.297c-1.904-1.212-2.807-0.79-3.076,1.461
			c-0.133,1.126-0.166,2.265-0.335,3.384c-0.155,1.029,0.14,1.619,1.214,1.831c0.324,0.063,1.004-0.076,0.915,0.595
			c-0.086,0.649-0.657,0.4-1.031,0.366c-1.787-0.162-3.571-0.359-5.356-0.546c-0.328-0.034-0.694-0.026-0.674-0.516
			c0.016-0.396,0.328-0.433,0.602-0.431c1.02,0.009,1.227-0.652,1.304-1.478c0.153-1.646,0.298-3.294,0.514-4.933
			c0.099-0.755-0.229-1.152-0.839-1.444c-0.213-0.103-0.449-0.224-0.413-0.504c0.05-0.38,0.379-0.351,0.653-0.374
			C169.086,254.109,170.336,253.927,171.549,253.559z"/>
		<path fill-rule="evenodd" clip-rule="evenodd" fill="#FE0A0A" d="M128.307,249.241c0.934-0.423,1.725-1.198,2.826-1.197
			c0.788,0,1.528,0.191,1.833,1.03c0.134,0.367-1.176,2.201-1.558,2.271c-0.407,0.076-0.547-0.303-0.793-0.492
			c-1.61-1.244-2.687-0.863-3.073,1.116c-0.181,0.925-0.253,1.874-0.481,2.786c-0.346,1.376-0.445,2.552,1.402,2.82
			c0.27,0.039,0.543,0.176,0.394,0.586c-0.135,0.369-0.386,0.339-0.677,0.285c-1.947-0.355-3.895-0.712-5.844-1.062
			c-0.25-0.045-0.486-0.131-0.504-0.401c-0.021-0.339,0.203-0.529,0.533-0.492c1.293,0.146,1.426-0.763,1.579-1.682
			c0.219-1.302,0.416-2.609,0.702-3.896c0.205-0.928,0.366-1.722-0.684-2.309c-0.566-0.316-0.376-0.756,0.248-0.787
			c1.223-0.061,2.452-0.216,3.652-0.234c0.953-0.016,0.008,0.944,0.175,1.44c-0.004,0.121-0.009,0.241-0.013,0.362
			C128.119,249.337,128.213,249.29,128.307,249.241z"/>
		<path fill-rule="evenodd" clip-rule="evenodd" fill="#FE0808" d="M449.031,231.81c0.429-0.689,1.001-0.67,1.47-0.801
			c3.982-1.108,5.764-4.16,6.848-7.789c0.374-1.252-0.084-2.337-1.146-3.108c-0.763-0.554-1.564-1.052-2.345-1.58
			c-0.345-0.232-0.791-0.39-0.805-0.905c-0.021-0.779-0.427-1.806,0.269-2.248c0.577-0.367,1.261,0.431,1.803,0.862
			c3.819,3.037,5.06,8.637,2.794,12.465c-0.939,1.587-2.195,2.647-4.108,2.897C452.271,231.804,450.752,232.083,449.031,231.81z"/>
		<path fill-rule="evenodd" clip-rule="evenodd" fill="#FE0A0A" d="M358.651,259.52c0.285-0.554,0.767-0.404,1.163-0.442
			c4.225-0.409,6.589-3.137,8.255-6.679c0.591-1.257,0.155-2.409-0.784-3.356c-0.631-0.636-1.311-1.225-1.981-1.818
			c-0.366-0.325-0.688-0.65-0.595-1.198c0.116-0.686-0.12-1.667,0.525-1.956c0.72-0.323,1.197,0.566,1.656,1.063
			c2.381,2.576,3.188,5.674,2.557,9.051c-0.646,3.454-2.874,6.528-7.699,5.95C360.713,260.01,359.597,260.183,358.651,259.52z"/>
		<path fill-rule="evenodd" clip-rule="evenodd" fill="#FE0808" d="M359.714,249.02c-0.012,2.584-1.617,4.348-4.196,4.609
			c-1.818,0.184-3.2-1.034-3.24-2.894c-0.043-2.017,0.54-3.891,1.3-5.736c0.559-1.354,1.508-1.52,2.74-1.112
			C358.522,244.615,359.726,246.428,359.714,249.02z M355.24,250.728c1.269-0.014,3.122-1.12,3.05-1.773
			c-0.065-0.598-1.962-1.799-2.87-1.819c-0.902-0.021-1.897,1.12-1.896,2.253C353.526,250.593,354.49,250.591,355.24,250.728z"/>
		<path fill-rule="evenodd" clip-rule="evenodd" fill="#FE0A0A" d="M336.506,236.473c1.408,4.647,2.938,9.251,3.878,14.013
			c0.355,1.8,0.802,3.604,0.3,5.459c-0.075,0.273-0.09,0.564-0.482,0.777c-0.493-0.904-0.517-1.938-0.801-2.887
			c-1.244-4.149-2.464-8.308-3.713-12.456C335.161,239.632,335.609,238.056,336.506,236.473z"/>
		<path fill-rule="evenodd" clip-rule="evenodd" fill="#FE0A0A" d="M229.059,256.609c0,2.619,0.01,5.251-0.005,7.883
			c-0.005,0.888-0.06,1.758,1.187,1.839c0.271,0.017,0.563,0.134,0.522,0.526c-0.038,0.37-0.29,0.439-0.596,0.438
			c-1.748-0.005-3.495-0.01-5.243-0.017c-0.296-0.001-0.584-0.041-0.634-0.405c-0.052-0.378,0.25-0.526,0.519-0.537
			c1.254-0.051,1.211-0.922,1.213-1.805c0.004-1.417,0.027-2.834,0.059-4.25c0.02-0.917,0.09-1.833-1.092-2.146
			c-0.213-0.056-0.445-0.239-0.356-0.524c0.099-0.316,0.399-0.352,0.683-0.397C226.521,257.023,227.728,256.825,229.059,256.609z"/>
		<path fill-rule="evenodd" clip-rule="evenodd" fill="#060606" d="M269.61,181.269c1.179,0,2.369,0.108,3.531-0.027
			c1.433-0.168,1.212,0.721,1.208,1.563c-0.005,0.834,0.24,1.671-1.198,1.588c-2.302-0.133-4.617-0.074-6.925-0.016
			c-0.89,0.023-1.222-0.175-1.195-1.142c0.053-1.965-0.008-1.966,1.893-1.966C267.82,181.269,268.715,181.269,269.61,181.269z"/>
		<path fill-rule="evenodd" clip-rule="evenodd" fill="#060606" d="M192.692,181.269c1.182,0,2.364,0.036,3.544-0.014
			c0.729-0.03,0.966,0.188,0.979,0.948c0.036,2.154,0.076,2.153-2.037,2.153c-2.08,0-4.161-0.046-6.238,0.021
			c-0.895,0.029-1.111-0.256-1.1-1.115c0.025-1.993-0.022-1.994,2.016-1.994C190.801,181.269,191.747,181.269,192.692,181.269z"/>
		<path fill-rule="evenodd" clip-rule="evenodd" fill="#5153EF" d="M314.245,75c0.409-0.356,0.902-0.193,1.358-0.205
			c4.714-0.12,9.431-0.106,14.146-0.183c8.286-0.135,16.578,0.107,24.868,0.192c0.281,0.003,0.571-0.024,0.793,0.208
			c-0.396,0.231-0.83,0.134-1.248,0.134c-12.891,0.004-25.782,0.004-38.674-0.003C315.072,75.145,314.636,75.251,314.245,75z"/>
		<path fill-rule="evenodd" clip-rule="evenodd" fill="#FE0808" d="M396.922,233.245c-0.629-0.162-1.365-0.472-2.051-0.895
			c-0.369-0.228-0.297-0.537-0.125-0.86c0.222-0.416,0.465-0.825,0.638-1.262c0.317-0.799,0.726-1.133,1.559-0.558
			c1.06,0.731,1.888,0.646,2.295-0.761c0.31-1.071,0.988-0.731,1.625-0.336c0.554,0.344,1.672,0.346,1.645,0.879
			c-0.044,0.826-0.603,1.662-1.066,2.418c-0.402,0.656-0.995,0.104-1.363-0.088c-0.979-0.513-1.614-0.465-2.001,0.686
			C397.935,232.887,397.711,233.38,396.922,233.245z"/>
		<path fill-rule="evenodd" clip-rule="evenodd" fill="#FE0808" d="M355.728,240.094c-0.182-0.081-0.414-0.149-0.605-0.279
			c-1.009-0.683-1.708-0.693-2.401,0.559c-0.778,1.405-1.684,0.11-2.498-0.187c-0.944-0.343-0.776-0.917-0.337-1.645
			c0.984-1.63,0.959-1.67,2.646-0.854c0.63,0.305,1.146,0.445,1.436-0.371c0.526-1.486,1.403-1.368,2.402-0.512
			c0.386,0.331,1.387,0.211,1.139,0.921c-0.298,0.852-0.777,1.701-1.467,2.361C355.993,240.135,355.861,240.094,355.728,240.094z"/>
		<path fill-rule="evenodd" clip-rule="evenodd" fill="#FE0808" d="M283.721,247.444c-0.624,0.805-1.085,1.602-1.738,2.179
			c-0.551,0.485-1.051-0.208-1.438-0.515c-0.751-0.595-1.248-0.58-1.779,0.254c-0.982,1.541-1.797,0.265-2.654-0.206
			c-1.107-0.607-0.514-1.179-0.056-1.886c0.749-1.154,1.468-1.595,2.566-0.407c0.896,0.967,1.301,0.052,1.816-0.521
			c0.267-0.295,0.417-1.001,1.044-0.582C282.242,246.268,282.947,246.857,283.721,247.444z"/>
		<path fill-rule="evenodd" clip-rule="evenodd" fill="#FE0808" d="M388.49,245.502c0.529-0.009,2.986,1.288,2.971,1.491
			c-0.047,0.654-1.354,2.49-1.771,2.488c-0.922-0.006-2.811-1.022-2.64-1.451C387.418,247.103,387.723,246.103,388.49,245.502z"/>
		<path fill-rule="evenodd" clip-rule="evenodd" fill="#5153EF" d="M322.43,225.856c-0.637-0.774-1.503-0.316-2.255-0.425
			c1.689,0.164,3.367,0.262,5.032-0.127c0.824-0.192,1.646-0.334,2.504-0.334c2.155,0.002,4.312,0.082,6.432-0.525
			c0.577-0.166,1.292-0.198,1.936,0.268c-1.873,0.376-3.71,0.925-5.648,0.927c-1.552-0.705-3.111-0.216-4.646,0.035
			C324.662,225.858,323.556,225.937,322.43,225.856z"/>
		<path fill-rule="evenodd" clip-rule="evenodd" fill="#5153EF" d="M371.325,75.599c0.262-0.294,0.659-0.294,0.915-0.165
			c1.422,0.718,2.943,0.492,4.414,0.449c3.274-0.097,6.471,0.563,9.707,0.819c-1.4,0.301-2.883,0.367-4.204,0.037
			c-2.716-0.68-5.438-0.338-8.154-0.477C373.065,76.214,372.113,76.24,371.325,75.599z"/>
		<path fill-rule="evenodd" clip-rule="evenodd" fill="#5153EF" d="M409.381,78.998c0.261-0.284,0.62-0.268,0.921-0.189
			c3.519,0.924,7.243,0.671,10.709,1.886c-1.59,0.507-3.05-0.358-4.571-0.52C414.08,79.922,411.648,79.879,409.381,78.998z"/>
		<path fill-rule="evenodd" clip-rule="evenodd" fill="#FE0A0A" d="M227.553,251.734c0.879,0.006,1.523,0.205,1.502,1.163
			c-0.025,1.067-0.561,1.63-1.668,1.659c-1.039,0.028-1.441-0.558-1.495-1.468C225.816,251.815,226.887,251.967,227.553,251.734z"/>
		<path fill-rule="evenodd" clip-rule="evenodd" fill="#5153EF" d="M386.945,76.726c0.704-0.449,1.519-0.313,2.201-0.149
			c2.939,0.703,5.964,0.586,8.923,1.057c0.175,0.027,0.336,0.138,0.504,0.21c-0.392,0.241-0.829,0.161-1.237,0.125
			C393.858,77.671,390.375,77.423,386.945,76.726z"/>
		<path fill-rule="evenodd" clip-rule="evenodd" fill="#5153EF" d="M357.979,75.027c1.611-0.334,3.196-0.412,4.804,0.141
			c1.122,0.386,2.334,0.088,3.501,0.178c1.485,0.115,2.994-0.239,4.459,0.239c-3.188,0.111-6.385,0.468-9.543-0.335
			C360.144,74.981,359.035,75.372,357.979,75.027z"/>
		<path fill-rule="evenodd" clip-rule="evenodd" fill="#5153EF" d="M399.441,77.866c1.532-0.693,2.827,0.407,4.247,0.563
			C402.191,78.854,400.844,78.15,399.441,77.866z"/>
		<path fill-rule="evenodd" clip-rule="evenodd" fill="#5153EF" d="M404.834,78.438c1.399-0.378,2.624,0.502,3.964,0.549
			C407.418,79.23,406.07,79.238,404.834,78.438z"/>
		<path fill-rule="evenodd" clip-rule="evenodd" fill="#C55387" d="M214.836,85.064c1.947-0.306,3.893-0.611,5.838-0.917
			C218.795,84.887,216.838,85.114,214.836,85.064z"/>
		<path fill-rule="evenodd" clip-rule="evenodd" fill="#5153EF" d="M309.476,75.31c-0.324-0.014-0.647-0.029-0.972-0.043
			c1.004-0.773,2.088-0.506,3.172-0.241C310.942,75.121,310.209,75.215,309.476,75.31z"/>
		<path fill-rule="evenodd" clip-rule="evenodd" fill="#5153EF" d="M326.688,226.254c1.03-0.591,2.138-0.714,3.293-0.552
			C328.934,226.19,327.824,226.3,326.688,226.254z"/>
		<path fill-rule="evenodd" clip-rule="evenodd" fill="#5153EF" d="M202.634,86.164c0.005,0.17,0.009,0.34,0.013,0.511
			c-0.475,0.137-0.946,0.322-1.563,0.217C201.43,86.041,202.074,86.196,202.634,86.164z"/>
		<path fill-rule="evenodd" clip-rule="evenodd" fill="#5153EF" d="M324.706,226.577c0.393-0.63,0.909-0.473,1.44-0.226
			C325.697,226.626,325.214,226.683,324.706,226.577z"/>
		<path fill-rule="evenodd" clip-rule="evenodd" fill="#5153EF" d="M323.279,226.754c0.173-0.279,0.366-0.381,0.605-0.068
			C323.698,226.843,323.498,226.885,323.279,226.754z"/>
		<polygon fill-rule="evenodd" clip-rule="evenodd" fill="#5153EF" points="319.647,226.07 319.737,225.994 319.843,226.034 
			319.755,226.102 		"/>
		<path fill-rule="evenodd" clip-rule="evenodd" fill="#FEFDFD" d="M92.961,249.96c0.063-0.051,0.123-0.102,0.186-0.152
			c0.01,0.115,0.02,0.23,0.029,0.347C93.105,250.089,93.033,250.025,92.961,249.96z"/>
		<path fill-rule="evenodd" clip-rule="evenodd" fill="#FEFDFD" d="M128.307,249.241c-0.094,0.049-0.188,0.097-0.281,0.146
			c0.004-0.121,0.009-0.241,0.013-0.362C128.127,249.096,128.217,249.168,128.307,249.241z"/>
	</g>
</g>
</svg>
